%TF.GenerationSoftware,KiCad,Pcbnew,10.0.0*%
%TF.CreationDate,2026-04-19T09:02:33-04:00*%
%TF.ProjectId,Fallout,46616c6c-6f75-4742-9e6b-696361645f70,rev?*%
%TF.SameCoordinates,Original*%
%TF.FileFunction,Legend,Top*%
%TF.FilePolarity,Positive*%
%FSLAX46Y46*%
G04 Gerber Fmt 4.6, Leading zero omitted, Abs format (unit mm)*
G04 Created by KiCad (PCBNEW 10.0.0) date 2026-04-19 09:02:33*
%MOMM*%
%LPD*%
G01*
G04 APERTURE LIST*
%ADD10C,0.100000*%
%ADD11C,0.150000*%
%ADD12C,0.120000*%
G04 APERTURE END LIST*
D10*
X180661027Y-77872419D02*
X180994360Y-78872419D01*
X180994360Y-78872419D02*
X181327693Y-77872419D01*
X181661027Y-78872419D02*
X181661027Y-77872419D01*
X182137217Y-78872419D02*
X182137217Y-77872419D01*
X182137217Y-77872419D02*
X182708645Y-78872419D01*
X182708645Y-78872419D02*
X182708645Y-77872419D01*
X183184836Y-78491466D02*
X183946741Y-78491466D01*
X183565788Y-78872419D02*
X183565788Y-78110514D01*
X177000000Y-75000000D02*
X178500000Y-75000000D01*
X177000000Y-77000000D02*
X177000000Y-75000000D01*
X192161027Y-52872419D02*
X192494360Y-53872419D01*
X192494360Y-53872419D02*
X192827693Y-52872419D01*
X193161027Y-53872419D02*
X193161027Y-52872419D01*
X193637217Y-53872419D02*
X193637217Y-52872419D01*
X193637217Y-52872419D02*
X194208645Y-53872419D01*
X194208645Y-53872419D02*
X194208645Y-52872419D01*
X194684836Y-53491466D02*
X195446741Y-53491466D01*
X195065788Y-53872419D02*
X195065788Y-53110514D01*
X199500000Y-49500000D02*
X199500000Y-52000000D01*
X196000000Y-49500000D02*
X199500000Y-49500000D01*
X205500000Y-90000000D02*
X207500000Y-90000000D01*
X205500000Y-92500000D02*
X205500000Y-90000000D01*
X208161027Y-93872419D02*
X208494360Y-94872419D01*
X208494360Y-94872419D02*
X208827693Y-93872419D01*
X209161027Y-94872419D02*
X209161027Y-93872419D01*
X209637217Y-94872419D02*
X209637217Y-93872419D01*
X209637217Y-93872419D02*
X210208645Y-94872419D01*
X210208645Y-94872419D02*
X210208645Y-93872419D01*
X210684836Y-94491466D02*
X211446741Y-94491466D01*
X211065788Y-94872419D02*
X211065788Y-94110514D01*
X212661027Y-57872419D02*
X213232455Y-57872419D01*
X212946741Y-58872419D02*
X212946741Y-57872419D01*
X213565789Y-58872419D02*
X213565789Y-57872419D01*
X213565789Y-57872419D02*
X213946741Y-57872419D01*
X213946741Y-57872419D02*
X214041979Y-57920038D01*
X214041979Y-57920038D02*
X214089598Y-57967657D01*
X214089598Y-57967657D02*
X214137217Y-58062895D01*
X214137217Y-58062895D02*
X214137217Y-58205752D01*
X214137217Y-58205752D02*
X214089598Y-58300990D01*
X214089598Y-58300990D02*
X214041979Y-58348609D01*
X214041979Y-58348609D02*
X213946741Y-58396228D01*
X213946741Y-58396228D02*
X213565789Y-58396228D01*
X214994360Y-58205752D02*
X214994360Y-58872419D01*
X214756265Y-57824800D02*
X214518170Y-58539085D01*
X214518170Y-58539085D02*
X215137217Y-58539085D01*
X215708646Y-57872419D02*
X215803884Y-57872419D01*
X215803884Y-57872419D02*
X215899122Y-57920038D01*
X215899122Y-57920038D02*
X215946741Y-57967657D01*
X215946741Y-57967657D02*
X215994360Y-58062895D01*
X215994360Y-58062895D02*
X216041979Y-58253371D01*
X216041979Y-58253371D02*
X216041979Y-58491466D01*
X216041979Y-58491466D02*
X215994360Y-58681942D01*
X215994360Y-58681942D02*
X215946741Y-58777180D01*
X215946741Y-58777180D02*
X215899122Y-58824800D01*
X215899122Y-58824800D02*
X215803884Y-58872419D01*
X215803884Y-58872419D02*
X215708646Y-58872419D01*
X215708646Y-58872419D02*
X215613408Y-58824800D01*
X215613408Y-58824800D02*
X215565789Y-58777180D01*
X215565789Y-58777180D02*
X215518170Y-58681942D01*
X215518170Y-58681942D02*
X215470551Y-58491466D01*
X215470551Y-58491466D02*
X215470551Y-58253371D01*
X215470551Y-58253371D02*
X215518170Y-58062895D01*
X215518170Y-58062895D02*
X215565789Y-57967657D01*
X215565789Y-57967657D02*
X215613408Y-57920038D01*
X215613408Y-57920038D02*
X215708646Y-57872419D01*
X216946741Y-57872419D02*
X216470551Y-57872419D01*
X216470551Y-57872419D02*
X216422932Y-58348609D01*
X216422932Y-58348609D02*
X216470551Y-58300990D01*
X216470551Y-58300990D02*
X216565789Y-58253371D01*
X216565789Y-58253371D02*
X216803884Y-58253371D01*
X216803884Y-58253371D02*
X216899122Y-58300990D01*
X216899122Y-58300990D02*
X216946741Y-58348609D01*
X216946741Y-58348609D02*
X216994360Y-58443847D01*
X216994360Y-58443847D02*
X216994360Y-58681942D01*
X216994360Y-58681942D02*
X216946741Y-58777180D01*
X216946741Y-58777180D02*
X216899122Y-58824800D01*
X216899122Y-58824800D02*
X216803884Y-58872419D01*
X216803884Y-58872419D02*
X216565789Y-58872419D01*
X216565789Y-58872419D02*
X216470551Y-58824800D01*
X216470551Y-58824800D02*
X216422932Y-58777180D01*
X217851503Y-57872419D02*
X217661027Y-57872419D01*
X217661027Y-57872419D02*
X217565789Y-57920038D01*
X217565789Y-57920038D02*
X217518170Y-57967657D01*
X217518170Y-57967657D02*
X217422932Y-58110514D01*
X217422932Y-58110514D02*
X217375313Y-58300990D01*
X217375313Y-58300990D02*
X217375313Y-58681942D01*
X217375313Y-58681942D02*
X217422932Y-58777180D01*
X217422932Y-58777180D02*
X217470551Y-58824800D01*
X217470551Y-58824800D02*
X217565789Y-58872419D01*
X217565789Y-58872419D02*
X217756265Y-58872419D01*
X217756265Y-58872419D02*
X217851503Y-58824800D01*
X217851503Y-58824800D02*
X217899122Y-58777180D01*
X217899122Y-58777180D02*
X217946741Y-58681942D01*
X217946741Y-58681942D02*
X217946741Y-58443847D01*
X217946741Y-58443847D02*
X217899122Y-58348609D01*
X217899122Y-58348609D02*
X217851503Y-58300990D01*
X217851503Y-58300990D02*
X217756265Y-58253371D01*
X217756265Y-58253371D02*
X217565789Y-58253371D01*
X217565789Y-58253371D02*
X217470551Y-58300990D01*
X217470551Y-58300990D02*
X217422932Y-58348609D01*
X217422932Y-58348609D02*
X217375313Y-58443847D01*
X129303884Y-80848609D02*
X129637217Y-80848609D01*
X129780074Y-81372419D02*
X129303884Y-81372419D01*
X129303884Y-81372419D02*
X129303884Y-80372419D01*
X129303884Y-80372419D02*
X129780074Y-80372419D01*
X130161027Y-81324800D02*
X130303884Y-81372419D01*
X130303884Y-81372419D02*
X130541979Y-81372419D01*
X130541979Y-81372419D02*
X130637217Y-81324800D01*
X130637217Y-81324800D02*
X130684836Y-81277180D01*
X130684836Y-81277180D02*
X130732455Y-81181942D01*
X130732455Y-81181942D02*
X130732455Y-81086704D01*
X130732455Y-81086704D02*
X130684836Y-80991466D01*
X130684836Y-80991466D02*
X130637217Y-80943847D01*
X130637217Y-80943847D02*
X130541979Y-80896228D01*
X130541979Y-80896228D02*
X130351503Y-80848609D01*
X130351503Y-80848609D02*
X130256265Y-80800990D01*
X130256265Y-80800990D02*
X130208646Y-80753371D01*
X130208646Y-80753371D02*
X130161027Y-80658133D01*
X130161027Y-80658133D02*
X130161027Y-80562895D01*
X130161027Y-80562895D02*
X130208646Y-80467657D01*
X130208646Y-80467657D02*
X130256265Y-80420038D01*
X130256265Y-80420038D02*
X130351503Y-80372419D01*
X130351503Y-80372419D02*
X130589598Y-80372419D01*
X130589598Y-80372419D02*
X130732455Y-80420038D01*
X131161027Y-81372419D02*
X131161027Y-80372419D01*
X131161027Y-80372419D02*
X131541979Y-80372419D01*
X131541979Y-80372419D02*
X131637217Y-80420038D01*
X131637217Y-80420038D02*
X131684836Y-80467657D01*
X131684836Y-80467657D02*
X131732455Y-80562895D01*
X131732455Y-80562895D02*
X131732455Y-80705752D01*
X131732455Y-80705752D02*
X131684836Y-80800990D01*
X131684836Y-80800990D02*
X131637217Y-80848609D01*
X131637217Y-80848609D02*
X131541979Y-80896228D01*
X131541979Y-80896228D02*
X131161027Y-80896228D01*
X132065789Y-80372419D02*
X132684836Y-80372419D01*
X132684836Y-80372419D02*
X132351503Y-80753371D01*
X132351503Y-80753371D02*
X132494360Y-80753371D01*
X132494360Y-80753371D02*
X132589598Y-80800990D01*
X132589598Y-80800990D02*
X132637217Y-80848609D01*
X132637217Y-80848609D02*
X132684836Y-80943847D01*
X132684836Y-80943847D02*
X132684836Y-81181942D01*
X132684836Y-81181942D02*
X132637217Y-81277180D01*
X132637217Y-81277180D02*
X132589598Y-81324800D01*
X132589598Y-81324800D02*
X132494360Y-81372419D01*
X132494360Y-81372419D02*
X132208646Y-81372419D01*
X132208646Y-81372419D02*
X132113408Y-81324800D01*
X132113408Y-81324800D02*
X132065789Y-81277180D01*
X133065789Y-80467657D02*
X133113408Y-80420038D01*
X133113408Y-80420038D02*
X133208646Y-80372419D01*
X133208646Y-80372419D02*
X133446741Y-80372419D01*
X133446741Y-80372419D02*
X133541979Y-80420038D01*
X133541979Y-80420038D02*
X133589598Y-80467657D01*
X133589598Y-80467657D02*
X133637217Y-80562895D01*
X133637217Y-80562895D02*
X133637217Y-80658133D01*
X133637217Y-80658133D02*
X133589598Y-80800990D01*
X133589598Y-80800990D02*
X133018170Y-81372419D01*
X133018170Y-81372419D02*
X133637217Y-81372419D01*
X158803884Y-74484919D02*
X158803884Y-73484919D01*
X158803884Y-73484919D02*
X159137217Y-74199204D01*
X159137217Y-74199204D02*
X159470550Y-73484919D01*
X159470550Y-73484919D02*
X159470550Y-74484919D01*
X159899122Y-74199204D02*
X160375312Y-74199204D01*
X159803884Y-74484919D02*
X160137217Y-73484919D01*
X160137217Y-73484919D02*
X160470550Y-74484919D01*
X160708646Y-73484919D02*
X161375312Y-74484919D01*
X161375312Y-73484919D02*
X160708646Y-74484919D01*
X162280074Y-74484919D02*
X161708646Y-74484919D01*
X161994360Y-74484919D02*
X161994360Y-73484919D01*
X161994360Y-73484919D02*
X161899122Y-73627776D01*
X161899122Y-73627776D02*
X161803884Y-73723014D01*
X161803884Y-73723014D02*
X161708646Y-73770633D01*
X162613408Y-73484919D02*
X163280074Y-73484919D01*
X163280074Y-73484919D02*
X162851503Y-74484919D01*
X163851503Y-73484919D02*
X163946741Y-73484919D01*
X163946741Y-73484919D02*
X164041979Y-73532538D01*
X164041979Y-73532538D02*
X164089598Y-73580157D01*
X164089598Y-73580157D02*
X164137217Y-73675395D01*
X164137217Y-73675395D02*
X164184836Y-73865871D01*
X164184836Y-73865871D02*
X164184836Y-74103966D01*
X164184836Y-74103966D02*
X164137217Y-74294442D01*
X164137217Y-74294442D02*
X164089598Y-74389680D01*
X164089598Y-74389680D02*
X164041979Y-74437300D01*
X164041979Y-74437300D02*
X163946741Y-74484919D01*
X163946741Y-74484919D02*
X163851503Y-74484919D01*
X163851503Y-74484919D02*
X163756265Y-74437300D01*
X163756265Y-74437300D02*
X163708646Y-74389680D01*
X163708646Y-74389680D02*
X163661027Y-74294442D01*
X163661027Y-74294442D02*
X163613408Y-74103966D01*
X163613408Y-74103966D02*
X163613408Y-73865871D01*
X163613408Y-73865871D02*
X163661027Y-73675395D01*
X163661027Y-73675395D02*
X163708646Y-73580157D01*
X163708646Y-73580157D02*
X163756265Y-73532538D01*
X163756265Y-73532538D02*
X163851503Y-73484919D01*
X165041979Y-73818252D02*
X165041979Y-74484919D01*
X164803884Y-73437300D02*
X164565789Y-74151585D01*
X164565789Y-74151585D02*
X165184836Y-74151585D01*
X165708646Y-73913490D02*
X165613408Y-73865871D01*
X165613408Y-73865871D02*
X165565789Y-73818252D01*
X165565789Y-73818252D02*
X165518170Y-73723014D01*
X165518170Y-73723014D02*
X165518170Y-73675395D01*
X165518170Y-73675395D02*
X165565789Y-73580157D01*
X165565789Y-73580157D02*
X165613408Y-73532538D01*
X165613408Y-73532538D02*
X165708646Y-73484919D01*
X165708646Y-73484919D02*
X165899122Y-73484919D01*
X165899122Y-73484919D02*
X165994360Y-73532538D01*
X165994360Y-73532538D02*
X166041979Y-73580157D01*
X166041979Y-73580157D02*
X166089598Y-73675395D01*
X166089598Y-73675395D02*
X166089598Y-73723014D01*
X166089598Y-73723014D02*
X166041979Y-73818252D01*
X166041979Y-73818252D02*
X165994360Y-73865871D01*
X165994360Y-73865871D02*
X165899122Y-73913490D01*
X165899122Y-73913490D02*
X165708646Y-73913490D01*
X165708646Y-73913490D02*
X165613408Y-73961109D01*
X165613408Y-73961109D02*
X165565789Y-74008728D01*
X165565789Y-74008728D02*
X165518170Y-74103966D01*
X165518170Y-74103966D02*
X165518170Y-74294442D01*
X165518170Y-74294442D02*
X165565789Y-74389680D01*
X165565789Y-74389680D02*
X165613408Y-74437300D01*
X165613408Y-74437300D02*
X165708646Y-74484919D01*
X165708646Y-74484919D02*
X165899122Y-74484919D01*
X165899122Y-74484919D02*
X165994360Y-74437300D01*
X165994360Y-74437300D02*
X166041979Y-74389680D01*
X166041979Y-74389680D02*
X166089598Y-74294442D01*
X166089598Y-74294442D02*
X166089598Y-74103966D01*
X166089598Y-74103966D02*
X166041979Y-74008728D01*
X166041979Y-74008728D02*
X165994360Y-73961109D01*
X165994360Y-73961109D02*
X165899122Y-73913490D01*
X179803884Y-57372419D02*
X179803884Y-56372419D01*
X179803884Y-56372419D02*
X180137217Y-57086704D01*
X180137217Y-57086704D02*
X180470550Y-56372419D01*
X180470550Y-56372419D02*
X180470550Y-57372419D01*
X180803884Y-56372419D02*
X181375312Y-56372419D01*
X181089598Y-57372419D02*
X181089598Y-56372419D01*
X181613408Y-56372419D02*
X182232455Y-56372419D01*
X182232455Y-56372419D02*
X181899122Y-56753371D01*
X181899122Y-56753371D02*
X182041979Y-56753371D01*
X182041979Y-56753371D02*
X182137217Y-56800990D01*
X182137217Y-56800990D02*
X182184836Y-56848609D01*
X182184836Y-56848609D02*
X182232455Y-56943847D01*
X182232455Y-56943847D02*
X182232455Y-57181942D01*
X182232455Y-57181942D02*
X182184836Y-57277180D01*
X182184836Y-57277180D02*
X182137217Y-57324800D01*
X182137217Y-57324800D02*
X182041979Y-57372419D01*
X182041979Y-57372419D02*
X181756265Y-57372419D01*
X181756265Y-57372419D02*
X181661027Y-57324800D01*
X181661027Y-57324800D02*
X181613408Y-57277180D01*
X183089598Y-56372419D02*
X182899122Y-56372419D01*
X182899122Y-56372419D02*
X182803884Y-56420038D01*
X182803884Y-56420038D02*
X182756265Y-56467657D01*
X182756265Y-56467657D02*
X182661027Y-56610514D01*
X182661027Y-56610514D02*
X182613408Y-56800990D01*
X182613408Y-56800990D02*
X182613408Y-57181942D01*
X182613408Y-57181942D02*
X182661027Y-57277180D01*
X182661027Y-57277180D02*
X182708646Y-57324800D01*
X182708646Y-57324800D02*
X182803884Y-57372419D01*
X182803884Y-57372419D02*
X182994360Y-57372419D01*
X182994360Y-57372419D02*
X183089598Y-57324800D01*
X183089598Y-57324800D02*
X183137217Y-57277180D01*
X183137217Y-57277180D02*
X183184836Y-57181942D01*
X183184836Y-57181942D02*
X183184836Y-56943847D01*
X183184836Y-56943847D02*
X183137217Y-56848609D01*
X183137217Y-56848609D02*
X183089598Y-56800990D01*
X183089598Y-56800990D02*
X182994360Y-56753371D01*
X182994360Y-56753371D02*
X182803884Y-56753371D01*
X182803884Y-56753371D02*
X182708646Y-56800990D01*
X182708646Y-56800990D02*
X182661027Y-56848609D01*
X182661027Y-56848609D02*
X182613408Y-56943847D01*
X183803884Y-56372419D02*
X183899122Y-56372419D01*
X183899122Y-56372419D02*
X183994360Y-56420038D01*
X183994360Y-56420038D02*
X184041979Y-56467657D01*
X184041979Y-56467657D02*
X184089598Y-56562895D01*
X184089598Y-56562895D02*
X184137217Y-56753371D01*
X184137217Y-56753371D02*
X184137217Y-56991466D01*
X184137217Y-56991466D02*
X184089598Y-57181942D01*
X184089598Y-57181942D02*
X184041979Y-57277180D01*
X184041979Y-57277180D02*
X183994360Y-57324800D01*
X183994360Y-57324800D02*
X183899122Y-57372419D01*
X183899122Y-57372419D02*
X183803884Y-57372419D01*
X183803884Y-57372419D02*
X183708646Y-57324800D01*
X183708646Y-57324800D02*
X183661027Y-57277180D01*
X183661027Y-57277180D02*
X183613408Y-57181942D01*
X183613408Y-57181942D02*
X183565789Y-56991466D01*
X183565789Y-56991466D02*
X183565789Y-56753371D01*
X183565789Y-56753371D02*
X183613408Y-56562895D01*
X183613408Y-56562895D02*
X183661027Y-56467657D01*
X183661027Y-56467657D02*
X183708646Y-56420038D01*
X183708646Y-56420038D02*
X183803884Y-56372419D01*
X184708646Y-56800990D02*
X184613408Y-56753371D01*
X184613408Y-56753371D02*
X184565789Y-56705752D01*
X184565789Y-56705752D02*
X184518170Y-56610514D01*
X184518170Y-56610514D02*
X184518170Y-56562895D01*
X184518170Y-56562895D02*
X184565789Y-56467657D01*
X184565789Y-56467657D02*
X184613408Y-56420038D01*
X184613408Y-56420038D02*
X184708646Y-56372419D01*
X184708646Y-56372419D02*
X184899122Y-56372419D01*
X184899122Y-56372419D02*
X184994360Y-56420038D01*
X184994360Y-56420038D02*
X185041979Y-56467657D01*
X185041979Y-56467657D02*
X185089598Y-56562895D01*
X185089598Y-56562895D02*
X185089598Y-56610514D01*
X185089598Y-56610514D02*
X185041979Y-56705752D01*
X185041979Y-56705752D02*
X184994360Y-56753371D01*
X184994360Y-56753371D02*
X184899122Y-56800990D01*
X184899122Y-56800990D02*
X184708646Y-56800990D01*
X184708646Y-56800990D02*
X184613408Y-56848609D01*
X184613408Y-56848609D02*
X184565789Y-56896228D01*
X184565789Y-56896228D02*
X184518170Y-56991466D01*
X184518170Y-56991466D02*
X184518170Y-57181942D01*
X184518170Y-57181942D02*
X184565789Y-57277180D01*
X184565789Y-57277180D02*
X184613408Y-57324800D01*
X184613408Y-57324800D02*
X184708646Y-57372419D01*
X184708646Y-57372419D02*
X184899122Y-57372419D01*
X184899122Y-57372419D02*
X184994360Y-57324800D01*
X184994360Y-57324800D02*
X185041979Y-57277180D01*
X185041979Y-57277180D02*
X185089598Y-57181942D01*
X185089598Y-57181942D02*
X185089598Y-56991466D01*
X185089598Y-56991466D02*
X185041979Y-56896228D01*
X185041979Y-56896228D02*
X184994360Y-56848609D01*
X184994360Y-56848609D02*
X184899122Y-56800990D01*
X210803884Y-103872419D02*
X210803884Y-102872419D01*
X210803884Y-102872419D02*
X211137217Y-103586704D01*
X211137217Y-103586704D02*
X211470550Y-102872419D01*
X211470550Y-102872419D02*
X211470550Y-103872419D01*
X211803884Y-102872419D02*
X212375312Y-102872419D01*
X212089598Y-103872419D02*
X212089598Y-102872419D01*
X212613408Y-102872419D02*
X213232455Y-102872419D01*
X213232455Y-102872419D02*
X212899122Y-103253371D01*
X212899122Y-103253371D02*
X213041979Y-103253371D01*
X213041979Y-103253371D02*
X213137217Y-103300990D01*
X213137217Y-103300990D02*
X213184836Y-103348609D01*
X213184836Y-103348609D02*
X213232455Y-103443847D01*
X213232455Y-103443847D02*
X213232455Y-103681942D01*
X213232455Y-103681942D02*
X213184836Y-103777180D01*
X213184836Y-103777180D02*
X213137217Y-103824800D01*
X213137217Y-103824800D02*
X213041979Y-103872419D01*
X213041979Y-103872419D02*
X212756265Y-103872419D01*
X212756265Y-103872419D02*
X212661027Y-103824800D01*
X212661027Y-103824800D02*
X212613408Y-103777180D01*
X214089598Y-102872419D02*
X213899122Y-102872419D01*
X213899122Y-102872419D02*
X213803884Y-102920038D01*
X213803884Y-102920038D02*
X213756265Y-102967657D01*
X213756265Y-102967657D02*
X213661027Y-103110514D01*
X213661027Y-103110514D02*
X213613408Y-103300990D01*
X213613408Y-103300990D02*
X213613408Y-103681942D01*
X213613408Y-103681942D02*
X213661027Y-103777180D01*
X213661027Y-103777180D02*
X213708646Y-103824800D01*
X213708646Y-103824800D02*
X213803884Y-103872419D01*
X213803884Y-103872419D02*
X213994360Y-103872419D01*
X213994360Y-103872419D02*
X214089598Y-103824800D01*
X214089598Y-103824800D02*
X214137217Y-103777180D01*
X214137217Y-103777180D02*
X214184836Y-103681942D01*
X214184836Y-103681942D02*
X214184836Y-103443847D01*
X214184836Y-103443847D02*
X214137217Y-103348609D01*
X214137217Y-103348609D02*
X214089598Y-103300990D01*
X214089598Y-103300990D02*
X213994360Y-103253371D01*
X213994360Y-103253371D02*
X213803884Y-103253371D01*
X213803884Y-103253371D02*
X213708646Y-103300990D01*
X213708646Y-103300990D02*
X213661027Y-103348609D01*
X213661027Y-103348609D02*
X213613408Y-103443847D01*
X214803884Y-102872419D02*
X214899122Y-102872419D01*
X214899122Y-102872419D02*
X214994360Y-102920038D01*
X214994360Y-102920038D02*
X215041979Y-102967657D01*
X215041979Y-102967657D02*
X215089598Y-103062895D01*
X215089598Y-103062895D02*
X215137217Y-103253371D01*
X215137217Y-103253371D02*
X215137217Y-103491466D01*
X215137217Y-103491466D02*
X215089598Y-103681942D01*
X215089598Y-103681942D02*
X215041979Y-103777180D01*
X215041979Y-103777180D02*
X214994360Y-103824800D01*
X214994360Y-103824800D02*
X214899122Y-103872419D01*
X214899122Y-103872419D02*
X214803884Y-103872419D01*
X214803884Y-103872419D02*
X214708646Y-103824800D01*
X214708646Y-103824800D02*
X214661027Y-103777180D01*
X214661027Y-103777180D02*
X214613408Y-103681942D01*
X214613408Y-103681942D02*
X214565789Y-103491466D01*
X214565789Y-103491466D02*
X214565789Y-103253371D01*
X214565789Y-103253371D02*
X214613408Y-103062895D01*
X214613408Y-103062895D02*
X214661027Y-102967657D01*
X214661027Y-102967657D02*
X214708646Y-102920038D01*
X214708646Y-102920038D02*
X214803884Y-102872419D01*
X215708646Y-103300990D02*
X215613408Y-103253371D01*
X215613408Y-103253371D02*
X215565789Y-103205752D01*
X215565789Y-103205752D02*
X215518170Y-103110514D01*
X215518170Y-103110514D02*
X215518170Y-103062895D01*
X215518170Y-103062895D02*
X215565789Y-102967657D01*
X215565789Y-102967657D02*
X215613408Y-102920038D01*
X215613408Y-102920038D02*
X215708646Y-102872419D01*
X215708646Y-102872419D02*
X215899122Y-102872419D01*
X215899122Y-102872419D02*
X215994360Y-102920038D01*
X215994360Y-102920038D02*
X216041979Y-102967657D01*
X216041979Y-102967657D02*
X216089598Y-103062895D01*
X216089598Y-103062895D02*
X216089598Y-103110514D01*
X216089598Y-103110514D02*
X216041979Y-103205752D01*
X216041979Y-103205752D02*
X215994360Y-103253371D01*
X215994360Y-103253371D02*
X215899122Y-103300990D01*
X215899122Y-103300990D02*
X215708646Y-103300990D01*
X215708646Y-103300990D02*
X215613408Y-103348609D01*
X215613408Y-103348609D02*
X215565789Y-103396228D01*
X215565789Y-103396228D02*
X215518170Y-103491466D01*
X215518170Y-103491466D02*
X215518170Y-103681942D01*
X215518170Y-103681942D02*
X215565789Y-103777180D01*
X215565789Y-103777180D02*
X215613408Y-103824800D01*
X215613408Y-103824800D02*
X215708646Y-103872419D01*
X215708646Y-103872419D02*
X215899122Y-103872419D01*
X215899122Y-103872419D02*
X215994360Y-103824800D01*
X215994360Y-103824800D02*
X216041979Y-103777180D01*
X216041979Y-103777180D02*
X216089598Y-103681942D01*
X216089598Y-103681942D02*
X216089598Y-103491466D01*
X216089598Y-103491466D02*
X216041979Y-103396228D01*
X216041979Y-103396228D02*
X215994360Y-103348609D01*
X215994360Y-103348609D02*
X215899122Y-103300990D01*
X214738095Y-59957419D02*
X214738095Y-60766942D01*
X214738095Y-60766942D02*
X214785714Y-60862180D01*
X214785714Y-60862180D02*
X214833333Y-60909800D01*
X214833333Y-60909800D02*
X214928571Y-60957419D01*
X214928571Y-60957419D02*
X215119047Y-60957419D01*
X215119047Y-60957419D02*
X215214285Y-60909800D01*
X215214285Y-60909800D02*
X215261904Y-60862180D01*
X215261904Y-60862180D02*
X215309523Y-60766942D01*
X215309523Y-60766942D02*
X215309523Y-59957419D01*
X215833333Y-60957419D02*
X216023809Y-60957419D01*
X216023809Y-60957419D02*
X216119047Y-60909800D01*
X216119047Y-60909800D02*
X216166666Y-60862180D01*
X216166666Y-60862180D02*
X216261904Y-60719323D01*
X216261904Y-60719323D02*
X216309523Y-60528847D01*
X216309523Y-60528847D02*
X216309523Y-60147895D01*
X216309523Y-60147895D02*
X216261904Y-60052657D01*
X216261904Y-60052657D02*
X216214285Y-60005038D01*
X216214285Y-60005038D02*
X216119047Y-59957419D01*
X216119047Y-59957419D02*
X215928571Y-59957419D01*
X215928571Y-59957419D02*
X215833333Y-60005038D01*
X215833333Y-60005038D02*
X215785714Y-60052657D01*
X215785714Y-60052657D02*
X215738095Y-60147895D01*
X215738095Y-60147895D02*
X215738095Y-60385990D01*
X215738095Y-60385990D02*
X215785714Y-60481228D01*
X215785714Y-60481228D02*
X215833333Y-60528847D01*
X215833333Y-60528847D02*
X215928571Y-60576466D01*
X215928571Y-60576466D02*
X216119047Y-60576466D01*
X216119047Y-60576466D02*
X216214285Y-60528847D01*
X216214285Y-60528847D02*
X216261904Y-60481228D01*
X216261904Y-60481228D02*
X216309523Y-60385990D01*
D11*
X202238095Y-66454819D02*
X202238095Y-65454819D01*
X202238095Y-65931009D02*
X202809523Y-65931009D01*
X202809523Y-66454819D02*
X202809523Y-65454819D01*
X203714285Y-65788152D02*
X203714285Y-66454819D01*
X203476190Y-65407200D02*
X203238095Y-66121485D01*
X203238095Y-66121485D02*
X203857142Y-66121485D01*
X171238095Y-115304819D02*
X171238095Y-114304819D01*
X171238095Y-114781009D02*
X171809523Y-114781009D01*
X171809523Y-115304819D02*
X171809523Y-114304819D01*
X172190476Y-114304819D02*
X172809523Y-114304819D01*
X172809523Y-114304819D02*
X172476190Y-114685771D01*
X172476190Y-114685771D02*
X172619047Y-114685771D01*
X172619047Y-114685771D02*
X172714285Y-114733390D01*
X172714285Y-114733390D02*
X172761904Y-114781009D01*
X172761904Y-114781009D02*
X172809523Y-114876247D01*
X172809523Y-114876247D02*
X172809523Y-115114342D01*
X172809523Y-115114342D02*
X172761904Y-115209580D01*
X172761904Y-115209580D02*
X172714285Y-115257200D01*
X172714285Y-115257200D02*
X172619047Y-115304819D01*
X172619047Y-115304819D02*
X172333333Y-115304819D01*
X172333333Y-115304819D02*
X172238095Y-115257200D01*
X172238095Y-115257200D02*
X172190476Y-115209580D01*
X99738095Y-116804819D02*
X99738095Y-115804819D01*
X99738095Y-116281009D02*
X100309523Y-116281009D01*
X100309523Y-116804819D02*
X100309523Y-115804819D01*
X100738095Y-115900057D02*
X100785714Y-115852438D01*
X100785714Y-115852438D02*
X100880952Y-115804819D01*
X100880952Y-115804819D02*
X101119047Y-115804819D01*
X101119047Y-115804819D02*
X101214285Y-115852438D01*
X101214285Y-115852438D02*
X101261904Y-115900057D01*
X101261904Y-115900057D02*
X101309523Y-115995295D01*
X101309523Y-115995295D02*
X101309523Y-116090533D01*
X101309523Y-116090533D02*
X101261904Y-116233390D01*
X101261904Y-116233390D02*
X100690476Y-116804819D01*
X100690476Y-116804819D02*
X101309523Y-116804819D01*
X97738095Y-49304819D02*
X97738095Y-48304819D01*
X97738095Y-48781009D02*
X98309523Y-48781009D01*
X98309523Y-49304819D02*
X98309523Y-48304819D01*
X99309523Y-49304819D02*
X98738095Y-49304819D01*
X99023809Y-49304819D02*
X99023809Y-48304819D01*
X99023809Y-48304819D02*
X98928571Y-48447676D01*
X98928571Y-48447676D02*
X98833333Y-48542914D01*
X98833333Y-48542914D02*
X98738095Y-48590533D01*
X192084819Y-105356666D02*
X191608628Y-105689999D01*
X192084819Y-105928094D02*
X191084819Y-105928094D01*
X191084819Y-105928094D02*
X191084819Y-105547142D01*
X191084819Y-105547142D02*
X191132438Y-105451904D01*
X191132438Y-105451904D02*
X191180057Y-105404285D01*
X191180057Y-105404285D02*
X191275295Y-105356666D01*
X191275295Y-105356666D02*
X191418152Y-105356666D01*
X191418152Y-105356666D02*
X191513390Y-105404285D01*
X191513390Y-105404285D02*
X191561009Y-105451904D01*
X191561009Y-105451904D02*
X191608628Y-105547142D01*
X191608628Y-105547142D02*
X191608628Y-105928094D01*
X191418152Y-104499523D02*
X192084819Y-104499523D01*
X191037200Y-104737618D02*
X191751485Y-104975713D01*
X191751485Y-104975713D02*
X191751485Y-104356666D01*
D10*
X212261905Y-104507419D02*
X212261905Y-105316942D01*
X212261905Y-105316942D02*
X212309524Y-105412180D01*
X212309524Y-105412180D02*
X212357143Y-105459800D01*
X212357143Y-105459800D02*
X212452381Y-105507419D01*
X212452381Y-105507419D02*
X212642857Y-105507419D01*
X212642857Y-105507419D02*
X212738095Y-105459800D01*
X212738095Y-105459800D02*
X212785714Y-105412180D01*
X212785714Y-105412180D02*
X212833333Y-105316942D01*
X212833333Y-105316942D02*
X212833333Y-104507419D01*
X213833333Y-105507419D02*
X213261905Y-105507419D01*
X213547619Y-105507419D02*
X213547619Y-104507419D01*
X213547619Y-104507419D02*
X213452381Y-104650276D01*
X213452381Y-104650276D02*
X213357143Y-104745514D01*
X213357143Y-104745514D02*
X213261905Y-104793133D01*
X214452381Y-104507419D02*
X214547619Y-104507419D01*
X214547619Y-104507419D02*
X214642857Y-104555038D01*
X214642857Y-104555038D02*
X214690476Y-104602657D01*
X214690476Y-104602657D02*
X214738095Y-104697895D01*
X214738095Y-104697895D02*
X214785714Y-104888371D01*
X214785714Y-104888371D02*
X214785714Y-105126466D01*
X214785714Y-105126466D02*
X214738095Y-105316942D01*
X214738095Y-105316942D02*
X214690476Y-105412180D01*
X214690476Y-105412180D02*
X214642857Y-105459800D01*
X214642857Y-105459800D02*
X214547619Y-105507419D01*
X214547619Y-105507419D02*
X214452381Y-105507419D01*
X214452381Y-105507419D02*
X214357143Y-105459800D01*
X214357143Y-105459800D02*
X214309524Y-105412180D01*
X214309524Y-105412180D02*
X214261905Y-105316942D01*
X214261905Y-105316942D02*
X214214286Y-105126466D01*
X214214286Y-105126466D02*
X214214286Y-104888371D01*
X214214286Y-104888371D02*
X214261905Y-104697895D01*
X214261905Y-104697895D02*
X214309524Y-104602657D01*
X214309524Y-104602657D02*
X214357143Y-104555038D01*
X214357143Y-104555038D02*
X214452381Y-104507419D01*
D11*
X177643333Y-97084819D02*
X177310000Y-96608628D01*
X177071905Y-97084819D02*
X177071905Y-96084819D01*
X177071905Y-96084819D02*
X177452857Y-96084819D01*
X177452857Y-96084819D02*
X177548095Y-96132438D01*
X177548095Y-96132438D02*
X177595714Y-96180057D01*
X177595714Y-96180057D02*
X177643333Y-96275295D01*
X177643333Y-96275295D02*
X177643333Y-96418152D01*
X177643333Y-96418152D02*
X177595714Y-96513390D01*
X177595714Y-96513390D02*
X177548095Y-96561009D01*
X177548095Y-96561009D02*
X177452857Y-96608628D01*
X177452857Y-96608628D02*
X177071905Y-96608628D01*
X178024286Y-96180057D02*
X178071905Y-96132438D01*
X178071905Y-96132438D02*
X178167143Y-96084819D01*
X178167143Y-96084819D02*
X178405238Y-96084819D01*
X178405238Y-96084819D02*
X178500476Y-96132438D01*
X178500476Y-96132438D02*
X178548095Y-96180057D01*
X178548095Y-96180057D02*
X178595714Y-96275295D01*
X178595714Y-96275295D02*
X178595714Y-96370533D01*
X178595714Y-96370533D02*
X178548095Y-96513390D01*
X178548095Y-96513390D02*
X177976667Y-97084819D01*
X177976667Y-97084819D02*
X178595714Y-97084819D01*
X103666666Y-79074819D02*
X103666666Y-79789104D01*
X103666666Y-79789104D02*
X103619047Y-79931961D01*
X103619047Y-79931961D02*
X103523809Y-80027200D01*
X103523809Y-80027200D02*
X103380952Y-80074819D01*
X103380952Y-80074819D02*
X103285714Y-80074819D01*
X104095238Y-79170057D02*
X104142857Y-79122438D01*
X104142857Y-79122438D02*
X104238095Y-79074819D01*
X104238095Y-79074819D02*
X104476190Y-79074819D01*
X104476190Y-79074819D02*
X104571428Y-79122438D01*
X104571428Y-79122438D02*
X104619047Y-79170057D01*
X104619047Y-79170057D02*
X104666666Y-79265295D01*
X104666666Y-79265295D02*
X104666666Y-79360533D01*
X104666666Y-79360533D02*
X104619047Y-79503390D01*
X104619047Y-79503390D02*
X104047619Y-80074819D01*
X104047619Y-80074819D02*
X104666666Y-80074819D01*
X186084819Y-105356666D02*
X185608628Y-105689999D01*
X186084819Y-105928094D02*
X185084819Y-105928094D01*
X185084819Y-105928094D02*
X185084819Y-105547142D01*
X185084819Y-105547142D02*
X185132438Y-105451904D01*
X185132438Y-105451904D02*
X185180057Y-105404285D01*
X185180057Y-105404285D02*
X185275295Y-105356666D01*
X185275295Y-105356666D02*
X185418152Y-105356666D01*
X185418152Y-105356666D02*
X185513390Y-105404285D01*
X185513390Y-105404285D02*
X185561009Y-105451904D01*
X185561009Y-105451904D02*
X185608628Y-105547142D01*
X185608628Y-105547142D02*
X185608628Y-105928094D01*
X185084819Y-105023332D02*
X185084819Y-104404285D01*
X185084819Y-104404285D02*
X185465771Y-104737618D01*
X185465771Y-104737618D02*
X185465771Y-104594761D01*
X185465771Y-104594761D02*
X185513390Y-104499523D01*
X185513390Y-104499523D02*
X185561009Y-104451904D01*
X185561009Y-104451904D02*
X185656247Y-104404285D01*
X185656247Y-104404285D02*
X185894342Y-104404285D01*
X185894342Y-104404285D02*
X185989580Y-104451904D01*
X185989580Y-104451904D02*
X186037200Y-104499523D01*
X186037200Y-104499523D02*
X186084819Y-104594761D01*
X186084819Y-104594761D02*
X186084819Y-104880475D01*
X186084819Y-104880475D02*
X186037200Y-104975713D01*
X186037200Y-104975713D02*
X185989580Y-105023332D01*
X110904761Y-52350057D02*
X110809523Y-52302438D01*
X110809523Y-52302438D02*
X110714285Y-52207200D01*
X110714285Y-52207200D02*
X110571428Y-52064342D01*
X110571428Y-52064342D02*
X110476190Y-52016723D01*
X110476190Y-52016723D02*
X110380952Y-52016723D01*
X110428571Y-52254819D02*
X110333333Y-52207200D01*
X110333333Y-52207200D02*
X110238095Y-52111961D01*
X110238095Y-52111961D02*
X110190476Y-51921485D01*
X110190476Y-51921485D02*
X110190476Y-51588152D01*
X110190476Y-51588152D02*
X110238095Y-51397676D01*
X110238095Y-51397676D02*
X110333333Y-51302438D01*
X110333333Y-51302438D02*
X110428571Y-51254819D01*
X110428571Y-51254819D02*
X110619047Y-51254819D01*
X110619047Y-51254819D02*
X110714285Y-51302438D01*
X110714285Y-51302438D02*
X110809523Y-51397676D01*
X110809523Y-51397676D02*
X110857142Y-51588152D01*
X110857142Y-51588152D02*
X110857142Y-51921485D01*
X110857142Y-51921485D02*
X110809523Y-52111961D01*
X110809523Y-52111961D02*
X110714285Y-52207200D01*
X110714285Y-52207200D02*
X110619047Y-52254819D01*
X110619047Y-52254819D02*
X110428571Y-52254819D01*
X111809523Y-52254819D02*
X111238095Y-52254819D01*
X111523809Y-52254819D02*
X111523809Y-51254819D01*
X111523809Y-51254819D02*
X111428571Y-51397676D01*
X111428571Y-51397676D02*
X111333333Y-51492914D01*
X111333333Y-51492914D02*
X111238095Y-51540533D01*
X171643333Y-91084819D02*
X171310000Y-90608628D01*
X171071905Y-91084819D02*
X171071905Y-90084819D01*
X171071905Y-90084819D02*
X171452857Y-90084819D01*
X171452857Y-90084819D02*
X171548095Y-90132438D01*
X171548095Y-90132438D02*
X171595714Y-90180057D01*
X171595714Y-90180057D02*
X171643333Y-90275295D01*
X171643333Y-90275295D02*
X171643333Y-90418152D01*
X171643333Y-90418152D02*
X171595714Y-90513390D01*
X171595714Y-90513390D02*
X171548095Y-90561009D01*
X171548095Y-90561009D02*
X171452857Y-90608628D01*
X171452857Y-90608628D02*
X171071905Y-90608628D01*
X172595714Y-91084819D02*
X172024286Y-91084819D01*
X172310000Y-91084819D02*
X172310000Y-90084819D01*
X172310000Y-90084819D02*
X172214762Y-90227676D01*
X172214762Y-90227676D02*
X172119524Y-90322914D01*
X172119524Y-90322914D02*
X172024286Y-90370533D01*
X217616666Y-75204819D02*
X217616666Y-75919104D01*
X217616666Y-75919104D02*
X217569047Y-76061961D01*
X217569047Y-76061961D02*
X217473809Y-76157200D01*
X217473809Y-76157200D02*
X217330952Y-76204819D01*
X217330952Y-76204819D02*
X217235714Y-76204819D01*
X218521428Y-75538152D02*
X218521428Y-76204819D01*
X218283333Y-75157200D02*
X218045238Y-75871485D01*
X218045238Y-75871485D02*
X218664285Y-75871485D01*
X103961666Y-48869819D02*
X103961666Y-49584104D01*
X103961666Y-49584104D02*
X103914047Y-49726961D01*
X103914047Y-49726961D02*
X103818809Y-49822200D01*
X103818809Y-49822200D02*
X103675952Y-49869819D01*
X103675952Y-49869819D02*
X103580714Y-49869819D01*
X104961666Y-49869819D02*
X104390238Y-49869819D01*
X104675952Y-49869819D02*
X104675952Y-48869819D01*
X104675952Y-48869819D02*
X104580714Y-49012676D01*
X104580714Y-49012676D02*
X104485476Y-49107914D01*
X104485476Y-49107914D02*
X104390238Y-49155533D01*
X154761905Y-55484819D02*
X154761905Y-54484819D01*
X154761905Y-54484819D02*
X155000000Y-54484819D01*
X155000000Y-54484819D02*
X155142857Y-54532438D01*
X155142857Y-54532438D02*
X155238095Y-54627676D01*
X155238095Y-54627676D02*
X155285714Y-54722914D01*
X155285714Y-54722914D02*
X155333333Y-54913390D01*
X155333333Y-54913390D02*
X155333333Y-55056247D01*
X155333333Y-55056247D02*
X155285714Y-55246723D01*
X155285714Y-55246723D02*
X155238095Y-55341961D01*
X155238095Y-55341961D02*
X155142857Y-55437200D01*
X155142857Y-55437200D02*
X155000000Y-55484819D01*
X155000000Y-55484819D02*
X154761905Y-55484819D01*
X156285714Y-55484819D02*
X155714286Y-55484819D01*
X156000000Y-55484819D02*
X156000000Y-54484819D01*
X156000000Y-54484819D02*
X155904762Y-54627676D01*
X155904762Y-54627676D02*
X155809524Y-54722914D01*
X155809524Y-54722914D02*
X155714286Y-54770533D01*
X150158095Y-55854819D02*
X150158095Y-54854819D01*
X150729523Y-55854819D02*
X150300952Y-55283390D01*
X150729523Y-54854819D02*
X150158095Y-55426247D01*
D10*
X132005501Y-135481597D02*
X132005501Y-134672074D01*
X132005501Y-134672074D02*
X131957882Y-134576836D01*
X131957882Y-134576836D02*
X131910263Y-134529217D01*
X131910263Y-134529217D02*
X131815025Y-134481597D01*
X131815025Y-134481597D02*
X131624549Y-134481597D01*
X131624549Y-134481597D02*
X131529311Y-134529217D01*
X131529311Y-134529217D02*
X131481692Y-134576836D01*
X131481692Y-134576836D02*
X131434073Y-134672074D01*
X131434073Y-134672074D02*
X131434073Y-135481597D01*
X130529311Y-135148264D02*
X130529311Y-134481597D01*
X130767406Y-135529217D02*
X131005501Y-134814931D01*
X131005501Y-134814931D02*
X130386454Y-134814931D01*
D11*
X189738095Y-110904819D02*
X189738095Y-111714342D01*
X189738095Y-111714342D02*
X189785714Y-111809580D01*
X189785714Y-111809580D02*
X189833333Y-111857200D01*
X189833333Y-111857200D02*
X189928571Y-111904819D01*
X189928571Y-111904819D02*
X190119047Y-111904819D01*
X190119047Y-111904819D02*
X190214285Y-111857200D01*
X190214285Y-111857200D02*
X190261904Y-111809580D01*
X190261904Y-111809580D02*
X190309523Y-111714342D01*
X190309523Y-111714342D02*
X190309523Y-110904819D01*
X190690476Y-110904819D02*
X191309523Y-110904819D01*
X191309523Y-110904819D02*
X190976190Y-111285771D01*
X190976190Y-111285771D02*
X191119047Y-111285771D01*
X191119047Y-111285771D02*
X191214285Y-111333390D01*
X191214285Y-111333390D02*
X191261904Y-111381009D01*
X191261904Y-111381009D02*
X191309523Y-111476247D01*
X191309523Y-111476247D02*
X191309523Y-111714342D01*
X191309523Y-111714342D02*
X191261904Y-111809580D01*
X191261904Y-111809580D02*
X191214285Y-111857200D01*
X191214285Y-111857200D02*
X191119047Y-111904819D01*
X191119047Y-111904819D02*
X190833333Y-111904819D01*
X190833333Y-111904819D02*
X190738095Y-111857200D01*
X190738095Y-111857200D02*
X190690476Y-111809580D01*
D10*
X181531912Y-43613851D02*
X181531912Y-44423374D01*
X181531912Y-44423374D02*
X181579531Y-44518612D01*
X181579531Y-44518612D02*
X181627150Y-44566232D01*
X181627150Y-44566232D02*
X181722388Y-44613851D01*
X181722388Y-44613851D02*
X181912864Y-44613851D01*
X181912864Y-44613851D02*
X182008102Y-44566232D01*
X182008102Y-44566232D02*
X182055721Y-44518612D01*
X182055721Y-44518612D02*
X182103340Y-44423374D01*
X182103340Y-44423374D02*
X182103340Y-43613851D01*
X182531912Y-43709089D02*
X182579531Y-43661470D01*
X182579531Y-43661470D02*
X182674769Y-43613851D01*
X182674769Y-43613851D02*
X182912864Y-43613851D01*
X182912864Y-43613851D02*
X183008102Y-43661470D01*
X183008102Y-43661470D02*
X183055721Y-43709089D01*
X183055721Y-43709089D02*
X183103340Y-43804327D01*
X183103340Y-43804327D02*
X183103340Y-43899565D01*
X183103340Y-43899565D02*
X183055721Y-44042422D01*
X183055721Y-44042422D02*
X182484293Y-44613851D01*
X182484293Y-44613851D02*
X183103340Y-44613851D01*
X188738095Y-79457419D02*
X188738095Y-80266942D01*
X188738095Y-80266942D02*
X188785714Y-80362180D01*
X188785714Y-80362180D02*
X188833333Y-80409800D01*
X188833333Y-80409800D02*
X188928571Y-80457419D01*
X188928571Y-80457419D02*
X189119047Y-80457419D01*
X189119047Y-80457419D02*
X189214285Y-80409800D01*
X189214285Y-80409800D02*
X189261904Y-80362180D01*
X189261904Y-80362180D02*
X189309523Y-80266942D01*
X189309523Y-80266942D02*
X189309523Y-79457419D01*
X190309523Y-80457419D02*
X189738095Y-80457419D01*
X190023809Y-80457419D02*
X190023809Y-79457419D01*
X190023809Y-79457419D02*
X189928571Y-79600276D01*
X189928571Y-79600276D02*
X189833333Y-79695514D01*
X189833333Y-79695514D02*
X189738095Y-79743133D01*
D11*
X161333333Y-91359580D02*
X161285714Y-91407200D01*
X161285714Y-91407200D02*
X161142857Y-91454819D01*
X161142857Y-91454819D02*
X161047619Y-91454819D01*
X161047619Y-91454819D02*
X160904762Y-91407200D01*
X160904762Y-91407200D02*
X160809524Y-91311961D01*
X160809524Y-91311961D02*
X160761905Y-91216723D01*
X160761905Y-91216723D02*
X160714286Y-91026247D01*
X160714286Y-91026247D02*
X160714286Y-90883390D01*
X160714286Y-90883390D02*
X160761905Y-90692914D01*
X160761905Y-90692914D02*
X160809524Y-90597676D01*
X160809524Y-90597676D02*
X160904762Y-90502438D01*
X160904762Y-90502438D02*
X161047619Y-90454819D01*
X161047619Y-90454819D02*
X161142857Y-90454819D01*
X161142857Y-90454819D02*
X161285714Y-90502438D01*
X161285714Y-90502438D02*
X161333333Y-90550057D01*
X162285714Y-91454819D02*
X161714286Y-91454819D01*
X162000000Y-91454819D02*
X162000000Y-90454819D01*
X162000000Y-90454819D02*
X161904762Y-90597676D01*
X161904762Y-90597676D02*
X161809524Y-90692914D01*
X161809524Y-90692914D02*
X161714286Y-90740533D01*
%TO.C,U9*%
D10*
X205950000Y-47312500D02*
X223100000Y-47312500D01*
X223100000Y-73552500D01*
X205950000Y-73552500D01*
X205950000Y-47312500D01*
%TO.C,R4*%
D12*
X192630000Y-108460000D02*
X192630000Y-101920000D01*
X192960000Y-108460000D02*
X192630000Y-108460000D01*
X195040000Y-108460000D02*
X195370000Y-108460000D01*
X195370000Y-108460000D02*
X195370000Y-101920000D01*
X192630000Y-101920000D02*
X192960000Y-101920000D01*
X195370000Y-101920000D02*
X195040000Y-101920000D01*
%TO.C,U10*%
D10*
X205000000Y-89550000D02*
X222000000Y-89550000D01*
X222000000Y-125550000D01*
X205000000Y-125550000D01*
X205000000Y-89550000D01*
%TO.C,R2*%
D12*
X174540000Y-97630000D02*
X181080000Y-97630000D01*
X174540000Y-97960000D02*
X174540000Y-97630000D01*
X174540000Y-100040000D02*
X174540000Y-100370000D01*
X174540000Y-100370000D02*
X181080000Y-100370000D01*
X181080000Y-97630000D02*
X181080000Y-97960000D01*
X181080000Y-100370000D02*
X181080000Y-100040000D01*
%TO.C,J2*%
X102620000Y-80620000D02*
X104000000Y-80620000D01*
X102620000Y-82000000D02*
X102620000Y-80620000D01*
X102620000Y-83270000D02*
X102620000Y-111320000D01*
X102620000Y-83270000D02*
X105380000Y-83270000D01*
X102620000Y-111320000D02*
X105380000Y-111320000D01*
X105380000Y-83270000D02*
X105380000Y-111320000D01*
%TO.C,R3*%
X186630000Y-108460000D02*
X186630000Y-101920000D01*
X186960000Y-108460000D02*
X186630000Y-108460000D01*
X189040000Y-108460000D02*
X189370000Y-108460000D01*
X189370000Y-108460000D02*
X189370000Y-101920000D01*
X186630000Y-101920000D02*
X186960000Y-101920000D01*
X189370000Y-101920000D02*
X189040000Y-101920000D01*
%TO.C,Q1*%
X109200000Y-57210000D02*
X112800000Y-57210000D01*
X109161522Y-57198478D02*
G75*
G02*
X111000000Y-52759999I1838478J1838478D01*
G01*
X111000000Y-52760000D02*
G75*
G02*
X112838478Y-57198478I0J-2600000D01*
G01*
%TO.C,R1*%
X168540000Y-91630000D02*
X175080000Y-91630000D01*
X168540000Y-91960000D02*
X168540000Y-91630000D01*
X168540000Y-94040000D02*
X168540000Y-94370000D01*
X168540000Y-94370000D02*
X175080000Y-94370000D01*
X175080000Y-91630000D02*
X175080000Y-91960000D01*
X175080000Y-94370000D02*
X175080000Y-94040000D01*
%TO.C,J4*%
X223300000Y-86100000D02*
X208600000Y-86100000D01*
X223300000Y-76900000D02*
X223300000Y-86100000D01*
X214500000Y-76900000D02*
X223300000Y-76900000D01*
X209450000Y-86300000D02*
X208400000Y-86300000D01*
X208600000Y-86100000D02*
X208600000Y-83500000D01*
X208600000Y-79600000D02*
X208600000Y-76900000D01*
X208600000Y-76900000D02*
X210500000Y-76900000D01*
X208400000Y-85250000D02*
X208400000Y-86300000D01*
%TO.C,J1*%
X102915000Y-50415000D02*
X104295000Y-50415000D01*
X102915000Y-51795000D02*
X102915000Y-50415000D01*
X102915000Y-53065000D02*
X102915000Y-76035000D01*
X102915000Y-53065000D02*
X105675000Y-53065000D01*
X102915000Y-76035000D02*
X105675000Y-76035000D01*
X105675000Y-53065000D02*
X105675000Y-76035000D01*
%TO.C,D1*%
X151760000Y-57500000D02*
X152780000Y-57500000D01*
X153560000Y-56030000D02*
X153560000Y-58970000D01*
X153680000Y-56030000D02*
X153680000Y-58970000D01*
X153800000Y-56030000D02*
X153800000Y-58970000D01*
X159240000Y-57500000D02*
X158220000Y-57500000D01*
X152780000Y-56030000D02*
X158220000Y-56030000D01*
X158220000Y-58970000D01*
X152780000Y-58970000D01*
X152780000Y-56030000D01*
%TO.C,U6*%
D10*
X149500000Y-68500000D02*
X175000000Y-68500000D01*
X175000000Y-89000000D01*
X149500000Y-89000000D01*
X149500000Y-68500000D01*
%TO.C,U4*%
D12*
X140393597Y-114149017D02*
X140393597Y-107949017D01*
X140393597Y-114149017D02*
X121993597Y-114149017D01*
X140393597Y-89299017D02*
X140393597Y-88299017D01*
X140393597Y-88299017D02*
X138893597Y-88299017D01*
X121993597Y-114149017D02*
X121993597Y-107949017D01*
D10*
X116900000Y-50240000D02*
X145500000Y-50240000D01*
X145500000Y-107940000D01*
X116900000Y-107940000D01*
X116900000Y-50240000D01*
D12*
X140393597Y-107774017D02*
X140393597Y-107274017D01*
X140893597Y-107274017D01*
X140393597Y-107774017D01*
G36*
X140393597Y-107774017D02*
G01*
X140393597Y-107274017D01*
X140893597Y-107274017D01*
X140393597Y-107774017D01*
G37*
%TO.C,U3*%
X180440000Y-113940000D02*
X181460000Y-113940000D01*
X180440000Y-118190000D02*
X180440000Y-113940000D01*
X181460000Y-113940000D02*
X181460000Y-115540000D01*
X181460000Y-115540000D02*
X182740000Y-115540000D01*
X182160000Y-121760000D02*
X198840000Y-121760000D01*
X182740000Y-115540000D02*
X182740000Y-112650000D01*
X199540000Y-113940000D02*
X199540000Y-115540000D01*
X199540000Y-115540000D02*
X198260000Y-115540000D01*
X200560000Y-113940000D02*
X199540000Y-113940000D01*
X200560000Y-118190000D02*
X200560000Y-113940000D01*
%TO.C,U2*%
D10*
X164050000Y-49000000D02*
X200050000Y-49000000D01*
X200050000Y-66000000D01*
X164050000Y-66000000D01*
X164050000Y-49000000D01*
%TO.C,U1*%
X176700000Y-74612500D02*
X202300000Y-74612500D01*
X202300000Y-85812500D01*
X176700000Y-85812500D01*
X176700000Y-74612500D01*
%TO.C,C1*%
D12*
X154630000Y-90130000D02*
X159870000Y-90130000D01*
X154630000Y-92870000D02*
X154630000Y-90130000D01*
X159870000Y-90130000D02*
X159870000Y-92870000D01*
X159870000Y-92870000D02*
X154630000Y-92870000D01*
%TD*%
M02*
