M48
; DRILL file KiCad 10.0.0 date 2026-04-19T09:02:38
; FORMAT={-:-/ absolute / metric / decimal}
; #@! TF.CreationDate,2026-04-19T09:02:38-04:00
; #@! TF.GenerationSoftware,Kicad,Pcbnew,10.0.0
; #@! TF.FileFunction,Plated,1,2,PTH
FMAT,2
METRIC
; #@! TA.AperFunction,Plated,PTH,ViaDrill
T1C0.300
; #@! TA.AperFunction,Plated,PTH,ComponentDrill
T2C0.750
; #@! TA.AperFunction,Plated,PTH,ComponentDrill
T3C0.800
; #@! TA.AperFunction,Plated,PTH,ComponentDrill
T4C1.000
; #@! TA.AperFunction,Plated,PTH,ComponentDrill
T5C1.100
%
G90
G05
T1
X197.5Y-110.5
T2
X109.73Y-55.36
X111.0Y-55.36
X112.27Y-55.36
T3
X156.0Y-91.5
X158.5Y-91.5
X168.0Y-93.0
X174.0Y-99.0
X175.62Y-93.0
X181.62Y-99.0
X188.0Y-101.38
X188.0Y-109.0
X194.0Y-101.38
X194.0Y-109.0
T4
X104.0Y-82.0
X104.0Y-84.54
X104.0Y-87.08
X104.0Y-89.62
X104.0Y-92.16
X104.0Y-94.7
X104.0Y-97.24
X104.0Y-99.78
X104.0Y-102.32
X104.0Y-104.86
X104.0Y-107.4
X104.0Y-109.94
X104.295Y-51.795
X104.295Y-54.335
X104.295Y-56.875
X104.295Y-59.415
X104.295Y-61.955
X104.295Y-64.495
X104.295Y-67.035
X104.295Y-69.575
X104.295Y-72.115
X104.295Y-74.655
X118.9Y-53.6
X118.9Y-56.14
X118.9Y-58.68
X118.9Y-61.22
X118.9Y-63.76
X118.9Y-66.3
X118.9Y-68.84
X118.9Y-71.38
X118.9Y-73.92
X118.9Y-76.46
X118.9Y-79.0
X118.9Y-81.54
X118.9Y-84.08
X118.9Y-86.62
X118.9Y-89.16
X118.9Y-91.7
X118.9Y-94.24
X118.9Y-96.78
X118.9Y-99.32
X118.9Y-101.86
X118.9Y-104.4
X118.9Y-106.94
X143.5Y-53.6
X143.5Y-56.14
X143.5Y-58.68
X143.5Y-61.22
X143.5Y-63.76
X143.5Y-66.3
X143.5Y-68.84
X143.5Y-71.38
X143.5Y-73.92
X143.5Y-76.46
X143.5Y-79.0
X143.5Y-81.54
X143.5Y-84.08
X143.5Y-86.62
X143.5Y-89.16
X143.5Y-91.7
X143.5Y-94.24
X143.5Y-96.78
X143.5Y-99.32
X143.5Y-101.86
X143.5Y-104.4
X143.5Y-106.94
X156.0Y-86.0
X158.54Y-86.0
X161.0Y-77.5
X161.08Y-86.0
X163.54Y-77.5
X163.62Y-86.0
X166.16Y-86.0
X166.55Y-53.5
X166.55Y-61.5
X168.7Y-86.0
X178.7Y-78.112
X178.7Y-80.653
X197.55Y-53.5
X197.55Y-61.5
X200.3Y-78.112
X200.3Y-80.653
X207.345Y-48.707
X207.345Y-72.157
X209.5Y-92.05
X209.5Y-123.05
X210.515Y-72.157
X217.5Y-92.05
X217.5Y-123.05
X218.535Y-72.157
X221.705Y-48.707
X221.705Y-72.157
T5
X150.42Y-57.5
X160.58Y-57.5
T4
G00X209.5Y-82.5
M15
G01X209.5Y-80.5
M16
G05
G00X213.5Y-76.8
M15
G01X211.5Y-76.8
M16
G05
G00X215.5Y-82.5
M15
G01X215.5Y-80.5
M16
G05
M30
