%TF.GenerationSoftware,KiCad,Pcbnew,10.0.1*%
%TF.CreationDate,2026-06-06T19:27:10-04:00*%
%TF.ProjectId,Left_Wing,4c656674-5f57-4696-9e67-2e6b69636164,rev?*%
%TF.SameCoordinates,Original*%
%TF.FileFunction,Legend,Top*%
%TF.FilePolarity,Positive*%
%FSLAX46Y46*%
G04 Gerber Fmt 4.6, Leading zero omitted, Abs format (unit mm)*
G04 Created by KiCad (PCBNEW 10.0.1) date 2026-06-06 19:27:10*
%MOMM*%
%LPD*%
G01*
G04 APERTURE LIST*
%ADD10C,0.150000*%
%ADD11C,0.120000*%
G04 APERTURE END LIST*
D10*
X71356667Y-122241200D02*
X71499524Y-122288819D01*
X71499524Y-122288819D02*
X71737619Y-122288819D01*
X71737619Y-122288819D02*
X71832857Y-122241200D01*
X71832857Y-122241200D02*
X71880476Y-122193580D01*
X71880476Y-122193580D02*
X71928095Y-122098342D01*
X71928095Y-122098342D02*
X71928095Y-122003104D01*
X71928095Y-122003104D02*
X71880476Y-121907866D01*
X71880476Y-121907866D02*
X71832857Y-121860247D01*
X71832857Y-121860247D02*
X71737619Y-121812628D01*
X71737619Y-121812628D02*
X71547143Y-121765009D01*
X71547143Y-121765009D02*
X71451905Y-121717390D01*
X71451905Y-121717390D02*
X71404286Y-121669771D01*
X71404286Y-121669771D02*
X71356667Y-121574533D01*
X71356667Y-121574533D02*
X71356667Y-121479295D01*
X71356667Y-121479295D02*
X71404286Y-121384057D01*
X71404286Y-121384057D02*
X71451905Y-121336438D01*
X71451905Y-121336438D02*
X71547143Y-121288819D01*
X71547143Y-121288819D02*
X71785238Y-121288819D01*
X71785238Y-121288819D02*
X71928095Y-121336438D01*
X72261429Y-121288819D02*
X72499524Y-122288819D01*
X72499524Y-122288819D02*
X72690000Y-121574533D01*
X72690000Y-121574533D02*
X72880476Y-122288819D01*
X72880476Y-122288819D02*
X73118572Y-121288819D01*
X73928095Y-121622152D02*
X73928095Y-122288819D01*
X73690000Y-121241200D02*
X73451905Y-121955485D01*
X73451905Y-121955485D02*
X74070952Y-121955485D01*
X71356667Y-85241200D02*
X71499524Y-85288819D01*
X71499524Y-85288819D02*
X71737619Y-85288819D01*
X71737619Y-85288819D02*
X71832857Y-85241200D01*
X71832857Y-85241200D02*
X71880476Y-85193580D01*
X71880476Y-85193580D02*
X71928095Y-85098342D01*
X71928095Y-85098342D02*
X71928095Y-85003104D01*
X71928095Y-85003104D02*
X71880476Y-84907866D01*
X71880476Y-84907866D02*
X71832857Y-84860247D01*
X71832857Y-84860247D02*
X71737619Y-84812628D01*
X71737619Y-84812628D02*
X71547143Y-84765009D01*
X71547143Y-84765009D02*
X71451905Y-84717390D01*
X71451905Y-84717390D02*
X71404286Y-84669771D01*
X71404286Y-84669771D02*
X71356667Y-84574533D01*
X71356667Y-84574533D02*
X71356667Y-84479295D01*
X71356667Y-84479295D02*
X71404286Y-84384057D01*
X71404286Y-84384057D02*
X71451905Y-84336438D01*
X71451905Y-84336438D02*
X71547143Y-84288819D01*
X71547143Y-84288819D02*
X71785238Y-84288819D01*
X71785238Y-84288819D02*
X71928095Y-84336438D01*
X72261429Y-84288819D02*
X72499524Y-85288819D01*
X72499524Y-85288819D02*
X72690000Y-84574533D01*
X72690000Y-84574533D02*
X72880476Y-85288819D01*
X72880476Y-85288819D02*
X73118572Y-84288819D01*
X73928095Y-84288819D02*
X73737619Y-84288819D01*
X73737619Y-84288819D02*
X73642381Y-84336438D01*
X73642381Y-84336438D02*
X73594762Y-84384057D01*
X73594762Y-84384057D02*
X73499524Y-84526914D01*
X73499524Y-84526914D02*
X73451905Y-84717390D01*
X73451905Y-84717390D02*
X73451905Y-85098342D01*
X73451905Y-85098342D02*
X73499524Y-85193580D01*
X73499524Y-85193580D02*
X73547143Y-85241200D01*
X73547143Y-85241200D02*
X73642381Y-85288819D01*
X73642381Y-85288819D02*
X73832857Y-85288819D01*
X73832857Y-85288819D02*
X73928095Y-85241200D01*
X73928095Y-85241200D02*
X73975714Y-85193580D01*
X73975714Y-85193580D02*
X74023333Y-85098342D01*
X74023333Y-85098342D02*
X74023333Y-84860247D01*
X74023333Y-84860247D02*
X73975714Y-84765009D01*
X73975714Y-84765009D02*
X73928095Y-84717390D01*
X73928095Y-84717390D02*
X73832857Y-84669771D01*
X73832857Y-84669771D02*
X73642381Y-84669771D01*
X73642381Y-84669771D02*
X73547143Y-84717390D01*
X73547143Y-84717390D02*
X73499524Y-84765009D01*
X73499524Y-84765009D02*
X73451905Y-84860247D01*
X43738095Y-58779819D02*
X43738095Y-57779819D01*
X43738095Y-58256009D02*
X44309523Y-58256009D01*
X44309523Y-58779819D02*
X44309523Y-57779819D01*
X45309523Y-58779819D02*
X44738095Y-58779819D01*
X45023809Y-58779819D02*
X45023809Y-57779819D01*
X45023809Y-57779819D02*
X44928571Y-57922676D01*
X44928571Y-57922676D02*
X44833333Y-58017914D01*
X44833333Y-58017914D02*
X44738095Y-58065533D01*
X89856667Y-85241200D02*
X89999524Y-85288819D01*
X89999524Y-85288819D02*
X90237619Y-85288819D01*
X90237619Y-85288819D02*
X90332857Y-85241200D01*
X90332857Y-85241200D02*
X90380476Y-85193580D01*
X90380476Y-85193580D02*
X90428095Y-85098342D01*
X90428095Y-85098342D02*
X90428095Y-85003104D01*
X90428095Y-85003104D02*
X90380476Y-84907866D01*
X90380476Y-84907866D02*
X90332857Y-84860247D01*
X90332857Y-84860247D02*
X90237619Y-84812628D01*
X90237619Y-84812628D02*
X90047143Y-84765009D01*
X90047143Y-84765009D02*
X89951905Y-84717390D01*
X89951905Y-84717390D02*
X89904286Y-84669771D01*
X89904286Y-84669771D02*
X89856667Y-84574533D01*
X89856667Y-84574533D02*
X89856667Y-84479295D01*
X89856667Y-84479295D02*
X89904286Y-84384057D01*
X89904286Y-84384057D02*
X89951905Y-84336438D01*
X89951905Y-84336438D02*
X90047143Y-84288819D01*
X90047143Y-84288819D02*
X90285238Y-84288819D01*
X90285238Y-84288819D02*
X90428095Y-84336438D01*
X90761429Y-84288819D02*
X90999524Y-85288819D01*
X90999524Y-85288819D02*
X91190000Y-84574533D01*
X91190000Y-84574533D02*
X91380476Y-85288819D01*
X91380476Y-85288819D02*
X91618572Y-84288819D01*
X91904286Y-84288819D02*
X92523333Y-84288819D01*
X92523333Y-84288819D02*
X92190000Y-84669771D01*
X92190000Y-84669771D02*
X92332857Y-84669771D01*
X92332857Y-84669771D02*
X92428095Y-84717390D01*
X92428095Y-84717390D02*
X92475714Y-84765009D01*
X92475714Y-84765009D02*
X92523333Y-84860247D01*
X92523333Y-84860247D02*
X92523333Y-85098342D01*
X92523333Y-85098342D02*
X92475714Y-85193580D01*
X92475714Y-85193580D02*
X92428095Y-85241200D01*
X92428095Y-85241200D02*
X92332857Y-85288819D01*
X92332857Y-85288819D02*
X92047143Y-85288819D01*
X92047143Y-85288819D02*
X91951905Y-85241200D01*
X91951905Y-85241200D02*
X91904286Y-85193580D01*
X103238095Y-66504819D02*
X103238095Y-65504819D01*
X103238095Y-65981009D02*
X103809523Y-65981009D01*
X103809523Y-66504819D02*
X103809523Y-65504819D01*
X104714285Y-65838152D02*
X104714285Y-66504819D01*
X104476190Y-65457200D02*
X104238095Y-66171485D01*
X104238095Y-66171485D02*
X104857142Y-66171485D01*
X89811667Y-122236200D02*
X89954524Y-122283819D01*
X89954524Y-122283819D02*
X90192619Y-122283819D01*
X90192619Y-122283819D02*
X90287857Y-122236200D01*
X90287857Y-122236200D02*
X90335476Y-122188580D01*
X90335476Y-122188580D02*
X90383095Y-122093342D01*
X90383095Y-122093342D02*
X90383095Y-121998104D01*
X90383095Y-121998104D02*
X90335476Y-121902866D01*
X90335476Y-121902866D02*
X90287857Y-121855247D01*
X90287857Y-121855247D02*
X90192619Y-121807628D01*
X90192619Y-121807628D02*
X90002143Y-121760009D01*
X90002143Y-121760009D02*
X89906905Y-121712390D01*
X89906905Y-121712390D02*
X89859286Y-121664771D01*
X89859286Y-121664771D02*
X89811667Y-121569533D01*
X89811667Y-121569533D02*
X89811667Y-121474295D01*
X89811667Y-121474295D02*
X89859286Y-121379057D01*
X89859286Y-121379057D02*
X89906905Y-121331438D01*
X89906905Y-121331438D02*
X90002143Y-121283819D01*
X90002143Y-121283819D02*
X90240238Y-121283819D01*
X90240238Y-121283819D02*
X90383095Y-121331438D01*
X90716429Y-121283819D02*
X90954524Y-122283819D01*
X90954524Y-122283819D02*
X91145000Y-121569533D01*
X91145000Y-121569533D02*
X91335476Y-122283819D01*
X91335476Y-122283819D02*
X91573572Y-121283819D01*
X92478333Y-122283819D02*
X91906905Y-122283819D01*
X92192619Y-122283819D02*
X92192619Y-121283819D01*
X92192619Y-121283819D02*
X92097381Y-121426676D01*
X92097381Y-121426676D02*
X92002143Y-121521914D01*
X92002143Y-121521914D02*
X91906905Y-121569533D01*
X52856667Y-85241200D02*
X52999524Y-85288819D01*
X52999524Y-85288819D02*
X53237619Y-85288819D01*
X53237619Y-85288819D02*
X53332857Y-85241200D01*
X53332857Y-85241200D02*
X53380476Y-85193580D01*
X53380476Y-85193580D02*
X53428095Y-85098342D01*
X53428095Y-85098342D02*
X53428095Y-85003104D01*
X53428095Y-85003104D02*
X53380476Y-84907866D01*
X53380476Y-84907866D02*
X53332857Y-84860247D01*
X53332857Y-84860247D02*
X53237619Y-84812628D01*
X53237619Y-84812628D02*
X53047143Y-84765009D01*
X53047143Y-84765009D02*
X52951905Y-84717390D01*
X52951905Y-84717390D02*
X52904286Y-84669771D01*
X52904286Y-84669771D02*
X52856667Y-84574533D01*
X52856667Y-84574533D02*
X52856667Y-84479295D01*
X52856667Y-84479295D02*
X52904286Y-84384057D01*
X52904286Y-84384057D02*
X52951905Y-84336438D01*
X52951905Y-84336438D02*
X53047143Y-84288819D01*
X53047143Y-84288819D02*
X53285238Y-84288819D01*
X53285238Y-84288819D02*
X53428095Y-84336438D01*
X53761429Y-84288819D02*
X53999524Y-85288819D01*
X53999524Y-85288819D02*
X54190000Y-84574533D01*
X54190000Y-84574533D02*
X54380476Y-85288819D01*
X54380476Y-85288819D02*
X54618572Y-84288819D01*
X55047143Y-85288819D02*
X55237619Y-85288819D01*
X55237619Y-85288819D02*
X55332857Y-85241200D01*
X55332857Y-85241200D02*
X55380476Y-85193580D01*
X55380476Y-85193580D02*
X55475714Y-85050723D01*
X55475714Y-85050723D02*
X55523333Y-84860247D01*
X55523333Y-84860247D02*
X55523333Y-84479295D01*
X55523333Y-84479295D02*
X55475714Y-84384057D01*
X55475714Y-84384057D02*
X55428095Y-84336438D01*
X55428095Y-84336438D02*
X55332857Y-84288819D01*
X55332857Y-84288819D02*
X55142381Y-84288819D01*
X55142381Y-84288819D02*
X55047143Y-84336438D01*
X55047143Y-84336438D02*
X54999524Y-84384057D01*
X54999524Y-84384057D02*
X54951905Y-84479295D01*
X54951905Y-84479295D02*
X54951905Y-84717390D01*
X54951905Y-84717390D02*
X54999524Y-84812628D01*
X54999524Y-84812628D02*
X55047143Y-84860247D01*
X55047143Y-84860247D02*
X55142381Y-84907866D01*
X55142381Y-84907866D02*
X55332857Y-84907866D01*
X55332857Y-84907866D02*
X55428095Y-84860247D01*
X55428095Y-84860247D02*
X55475714Y-84812628D01*
X55475714Y-84812628D02*
X55523333Y-84717390D01*
X83869819Y-62038333D02*
X84584104Y-62038333D01*
X84584104Y-62038333D02*
X84726961Y-62085952D01*
X84726961Y-62085952D02*
X84822200Y-62181190D01*
X84822200Y-62181190D02*
X84869819Y-62324047D01*
X84869819Y-62324047D02*
X84869819Y-62419285D01*
X84869819Y-61038333D02*
X84869819Y-61609761D01*
X84869819Y-61324047D02*
X83869819Y-61324047D01*
X83869819Y-61324047D02*
X84012676Y-61419285D01*
X84012676Y-61419285D02*
X84107914Y-61514523D01*
X84107914Y-61514523D02*
X84155533Y-61609761D01*
X52856667Y-103741200D02*
X52999524Y-103788819D01*
X52999524Y-103788819D02*
X53237619Y-103788819D01*
X53237619Y-103788819D02*
X53332857Y-103741200D01*
X53332857Y-103741200D02*
X53380476Y-103693580D01*
X53380476Y-103693580D02*
X53428095Y-103598342D01*
X53428095Y-103598342D02*
X53428095Y-103503104D01*
X53428095Y-103503104D02*
X53380476Y-103407866D01*
X53380476Y-103407866D02*
X53332857Y-103360247D01*
X53332857Y-103360247D02*
X53237619Y-103312628D01*
X53237619Y-103312628D02*
X53047143Y-103265009D01*
X53047143Y-103265009D02*
X52951905Y-103217390D01*
X52951905Y-103217390D02*
X52904286Y-103169771D01*
X52904286Y-103169771D02*
X52856667Y-103074533D01*
X52856667Y-103074533D02*
X52856667Y-102979295D01*
X52856667Y-102979295D02*
X52904286Y-102884057D01*
X52904286Y-102884057D02*
X52951905Y-102836438D01*
X52951905Y-102836438D02*
X53047143Y-102788819D01*
X53047143Y-102788819D02*
X53285238Y-102788819D01*
X53285238Y-102788819D02*
X53428095Y-102836438D01*
X53761429Y-102788819D02*
X53999524Y-103788819D01*
X53999524Y-103788819D02*
X54190000Y-103074533D01*
X54190000Y-103074533D02*
X54380476Y-103788819D01*
X54380476Y-103788819D02*
X54618572Y-102788819D01*
X55142381Y-103217390D02*
X55047143Y-103169771D01*
X55047143Y-103169771D02*
X54999524Y-103122152D01*
X54999524Y-103122152D02*
X54951905Y-103026914D01*
X54951905Y-103026914D02*
X54951905Y-102979295D01*
X54951905Y-102979295D02*
X54999524Y-102884057D01*
X54999524Y-102884057D02*
X55047143Y-102836438D01*
X55047143Y-102836438D02*
X55142381Y-102788819D01*
X55142381Y-102788819D02*
X55332857Y-102788819D01*
X55332857Y-102788819D02*
X55428095Y-102836438D01*
X55428095Y-102836438D02*
X55475714Y-102884057D01*
X55475714Y-102884057D02*
X55523333Y-102979295D01*
X55523333Y-102979295D02*
X55523333Y-103026914D01*
X55523333Y-103026914D02*
X55475714Y-103122152D01*
X55475714Y-103122152D02*
X55428095Y-103169771D01*
X55428095Y-103169771D02*
X55332857Y-103217390D01*
X55332857Y-103217390D02*
X55142381Y-103217390D01*
X55142381Y-103217390D02*
X55047143Y-103265009D01*
X55047143Y-103265009D02*
X54999524Y-103312628D01*
X54999524Y-103312628D02*
X54951905Y-103407866D01*
X54951905Y-103407866D02*
X54951905Y-103598342D01*
X54951905Y-103598342D02*
X54999524Y-103693580D01*
X54999524Y-103693580D02*
X55047143Y-103741200D01*
X55047143Y-103741200D02*
X55142381Y-103788819D01*
X55142381Y-103788819D02*
X55332857Y-103788819D01*
X55332857Y-103788819D02*
X55428095Y-103741200D01*
X55428095Y-103741200D02*
X55475714Y-103693580D01*
X55475714Y-103693580D02*
X55523333Y-103598342D01*
X55523333Y-103598342D02*
X55523333Y-103407866D01*
X55523333Y-103407866D02*
X55475714Y-103312628D01*
X55475714Y-103312628D02*
X55428095Y-103265009D01*
X55428095Y-103265009D02*
X55332857Y-103217390D01*
X102238095Y-124004819D02*
X102238095Y-123004819D01*
X102238095Y-123481009D02*
X102809523Y-123481009D01*
X102809523Y-124004819D02*
X102809523Y-123004819D01*
X103190476Y-123004819D02*
X103809523Y-123004819D01*
X103809523Y-123004819D02*
X103476190Y-123385771D01*
X103476190Y-123385771D02*
X103619047Y-123385771D01*
X103619047Y-123385771D02*
X103714285Y-123433390D01*
X103714285Y-123433390D02*
X103761904Y-123481009D01*
X103761904Y-123481009D02*
X103809523Y-123576247D01*
X103809523Y-123576247D02*
X103809523Y-123814342D01*
X103809523Y-123814342D02*
X103761904Y-123909580D01*
X103761904Y-123909580D02*
X103714285Y-123957200D01*
X103714285Y-123957200D02*
X103619047Y-124004819D01*
X103619047Y-124004819D02*
X103333333Y-124004819D01*
X103333333Y-124004819D02*
X103238095Y-123957200D01*
X103238095Y-123957200D02*
X103190476Y-123909580D01*
X71356667Y-103741200D02*
X71499524Y-103788819D01*
X71499524Y-103788819D02*
X71737619Y-103788819D01*
X71737619Y-103788819D02*
X71832857Y-103741200D01*
X71832857Y-103741200D02*
X71880476Y-103693580D01*
X71880476Y-103693580D02*
X71928095Y-103598342D01*
X71928095Y-103598342D02*
X71928095Y-103503104D01*
X71928095Y-103503104D02*
X71880476Y-103407866D01*
X71880476Y-103407866D02*
X71832857Y-103360247D01*
X71832857Y-103360247D02*
X71737619Y-103312628D01*
X71737619Y-103312628D02*
X71547143Y-103265009D01*
X71547143Y-103265009D02*
X71451905Y-103217390D01*
X71451905Y-103217390D02*
X71404286Y-103169771D01*
X71404286Y-103169771D02*
X71356667Y-103074533D01*
X71356667Y-103074533D02*
X71356667Y-102979295D01*
X71356667Y-102979295D02*
X71404286Y-102884057D01*
X71404286Y-102884057D02*
X71451905Y-102836438D01*
X71451905Y-102836438D02*
X71547143Y-102788819D01*
X71547143Y-102788819D02*
X71785238Y-102788819D01*
X71785238Y-102788819D02*
X71928095Y-102836438D01*
X72261429Y-102788819D02*
X72499524Y-103788819D01*
X72499524Y-103788819D02*
X72690000Y-103074533D01*
X72690000Y-103074533D02*
X72880476Y-103788819D01*
X72880476Y-103788819D02*
X73118572Y-102788819D01*
X73975714Y-102788819D02*
X73499524Y-102788819D01*
X73499524Y-102788819D02*
X73451905Y-103265009D01*
X73451905Y-103265009D02*
X73499524Y-103217390D01*
X73499524Y-103217390D02*
X73594762Y-103169771D01*
X73594762Y-103169771D02*
X73832857Y-103169771D01*
X73832857Y-103169771D02*
X73928095Y-103217390D01*
X73928095Y-103217390D02*
X73975714Y-103265009D01*
X73975714Y-103265009D02*
X74023333Y-103360247D01*
X74023333Y-103360247D02*
X74023333Y-103598342D01*
X74023333Y-103598342D02*
X73975714Y-103693580D01*
X73975714Y-103693580D02*
X73928095Y-103741200D01*
X73928095Y-103741200D02*
X73832857Y-103788819D01*
X73832857Y-103788819D02*
X73594762Y-103788819D01*
X73594762Y-103788819D02*
X73499524Y-103741200D01*
X73499524Y-103741200D02*
X73451905Y-103693580D01*
X52856667Y-122241200D02*
X52999524Y-122288819D01*
X52999524Y-122288819D02*
X53237619Y-122288819D01*
X53237619Y-122288819D02*
X53332857Y-122241200D01*
X53332857Y-122241200D02*
X53380476Y-122193580D01*
X53380476Y-122193580D02*
X53428095Y-122098342D01*
X53428095Y-122098342D02*
X53428095Y-122003104D01*
X53428095Y-122003104D02*
X53380476Y-121907866D01*
X53380476Y-121907866D02*
X53332857Y-121860247D01*
X53332857Y-121860247D02*
X53237619Y-121812628D01*
X53237619Y-121812628D02*
X53047143Y-121765009D01*
X53047143Y-121765009D02*
X52951905Y-121717390D01*
X52951905Y-121717390D02*
X52904286Y-121669771D01*
X52904286Y-121669771D02*
X52856667Y-121574533D01*
X52856667Y-121574533D02*
X52856667Y-121479295D01*
X52856667Y-121479295D02*
X52904286Y-121384057D01*
X52904286Y-121384057D02*
X52951905Y-121336438D01*
X52951905Y-121336438D02*
X53047143Y-121288819D01*
X53047143Y-121288819D02*
X53285238Y-121288819D01*
X53285238Y-121288819D02*
X53428095Y-121336438D01*
X53761429Y-121288819D02*
X53999524Y-122288819D01*
X53999524Y-122288819D02*
X54190000Y-121574533D01*
X54190000Y-121574533D02*
X54380476Y-122288819D01*
X54380476Y-122288819D02*
X54618572Y-121288819D01*
X54904286Y-121288819D02*
X55570952Y-121288819D01*
X55570952Y-121288819D02*
X55142381Y-122288819D01*
X41738095Y-123504819D02*
X41738095Y-122504819D01*
X41738095Y-122981009D02*
X42309523Y-122981009D01*
X42309523Y-123504819D02*
X42309523Y-122504819D01*
X42738095Y-122600057D02*
X42785714Y-122552438D01*
X42785714Y-122552438D02*
X42880952Y-122504819D01*
X42880952Y-122504819D02*
X43119047Y-122504819D01*
X43119047Y-122504819D02*
X43214285Y-122552438D01*
X43214285Y-122552438D02*
X43261904Y-122600057D01*
X43261904Y-122600057D02*
X43309523Y-122695295D01*
X43309523Y-122695295D02*
X43309523Y-122790533D01*
X43309523Y-122790533D02*
X43261904Y-122933390D01*
X43261904Y-122933390D02*
X42690476Y-123504819D01*
X42690476Y-123504819D02*
X43309523Y-123504819D01*
X89811667Y-103741200D02*
X89954524Y-103788819D01*
X89954524Y-103788819D02*
X90192619Y-103788819D01*
X90192619Y-103788819D02*
X90287857Y-103741200D01*
X90287857Y-103741200D02*
X90335476Y-103693580D01*
X90335476Y-103693580D02*
X90383095Y-103598342D01*
X90383095Y-103598342D02*
X90383095Y-103503104D01*
X90383095Y-103503104D02*
X90335476Y-103407866D01*
X90335476Y-103407866D02*
X90287857Y-103360247D01*
X90287857Y-103360247D02*
X90192619Y-103312628D01*
X90192619Y-103312628D02*
X90002143Y-103265009D01*
X90002143Y-103265009D02*
X89906905Y-103217390D01*
X89906905Y-103217390D02*
X89859286Y-103169771D01*
X89859286Y-103169771D02*
X89811667Y-103074533D01*
X89811667Y-103074533D02*
X89811667Y-102979295D01*
X89811667Y-102979295D02*
X89859286Y-102884057D01*
X89859286Y-102884057D02*
X89906905Y-102836438D01*
X89906905Y-102836438D02*
X90002143Y-102788819D01*
X90002143Y-102788819D02*
X90240238Y-102788819D01*
X90240238Y-102788819D02*
X90383095Y-102836438D01*
X90716429Y-102788819D02*
X90954524Y-103788819D01*
X90954524Y-103788819D02*
X91145000Y-103074533D01*
X91145000Y-103074533D02*
X91335476Y-103788819D01*
X91335476Y-103788819D02*
X91573572Y-102788819D01*
X91906905Y-102884057D02*
X91954524Y-102836438D01*
X91954524Y-102836438D02*
X92049762Y-102788819D01*
X92049762Y-102788819D02*
X92287857Y-102788819D01*
X92287857Y-102788819D02*
X92383095Y-102836438D01*
X92383095Y-102836438D02*
X92430714Y-102884057D01*
X92430714Y-102884057D02*
X92478333Y-102979295D01*
X92478333Y-102979295D02*
X92478333Y-103074533D01*
X92478333Y-103074533D02*
X92430714Y-103217390D01*
X92430714Y-103217390D02*
X91859286Y-103788819D01*
X91859286Y-103788819D02*
X92478333Y-103788819D01*
%TO.C,SW4*%
D11*
X65705000Y-106975000D02*
X79675000Y-106975000D01*
X65705000Y-120945000D02*
X65705000Y-106975000D01*
X79675000Y-106975000D02*
X79675000Y-120945000D01*
X79675000Y-120945000D02*
X65705000Y-120945000D01*
%TO.C,SW6*%
X65705000Y-69975000D02*
X79675000Y-69975000D01*
X65705000Y-83945000D02*
X65705000Y-69975000D01*
X79675000Y-69975000D02*
X79675000Y-83945000D01*
X79675000Y-83945000D02*
X65705000Y-83945000D01*
%TO.C,SW3*%
X84205000Y-69975000D02*
X98175000Y-69975000D01*
X84205000Y-83945000D02*
X84205000Y-69975000D01*
X98175000Y-69975000D02*
X98175000Y-83945000D01*
X98175000Y-83945000D02*
X84205000Y-83945000D01*
%TO.C,SW1*%
X84160000Y-106970000D02*
X98130000Y-106970000D01*
X84160000Y-120940000D02*
X84160000Y-106970000D01*
X98130000Y-106970000D02*
X98130000Y-120940000D01*
X98130000Y-120940000D02*
X84160000Y-120940000D01*
%TO.C,SW9*%
X47205000Y-69975000D02*
X61175000Y-69975000D01*
X47205000Y-83945000D02*
X47205000Y-69975000D01*
X61175000Y-69975000D02*
X61175000Y-83945000D01*
X61175000Y-83945000D02*
X47205000Y-83945000D01*
%TO.C,J1*%
X85415000Y-63085000D02*
X85415000Y-61705000D01*
X86795000Y-63085000D02*
X85415000Y-63085000D01*
X88065000Y-60325000D02*
X100875000Y-60325000D01*
X88065000Y-63085000D02*
X88065000Y-60325000D01*
X88065000Y-63085000D02*
X100875000Y-63085000D01*
X100875000Y-63085000D02*
X100875000Y-60325000D01*
%TO.C,SW8*%
X47205000Y-88475000D02*
X61175000Y-88475000D01*
X47205000Y-102445000D02*
X47205000Y-88475000D01*
X61175000Y-88475000D02*
X61175000Y-102445000D01*
X61175000Y-102445000D02*
X47205000Y-102445000D01*
%TO.C,SW5*%
X65705000Y-88475000D02*
X79675000Y-88475000D01*
X65705000Y-102445000D02*
X65705000Y-88475000D01*
X79675000Y-88475000D02*
X79675000Y-102445000D01*
X79675000Y-102445000D02*
X65705000Y-102445000D01*
%TO.C,SW7*%
X47205000Y-106975000D02*
X61175000Y-106975000D01*
X47205000Y-120945000D02*
X47205000Y-106975000D01*
X61175000Y-106975000D02*
X61175000Y-120945000D01*
X61175000Y-120945000D02*
X47205000Y-120945000D01*
%TO.C,SW2*%
X84160000Y-88475000D02*
X98130000Y-88475000D01*
X84160000Y-102445000D02*
X84160000Y-88475000D01*
X98130000Y-88475000D02*
X98130000Y-102445000D01*
X98130000Y-102445000D02*
X84160000Y-102445000D01*
%TD*%
M02*
