%TF.GenerationSoftware,KiCad,Pcbnew,10.0.1*%
%TF.CreationDate,2026-06-06T19:27:10-04:00*%
%TF.ProjectId,Left_Wing,4c656674-5f57-4696-9e67-2e6b69636164,rev?*%
%TF.SameCoordinates,Original*%
%TF.FileFunction,Copper,L2,Bot*%
%TF.FilePolarity,Positive*%
%FSLAX46Y46*%
G04 Gerber Fmt 4.6, Leading zero omitted, Abs format (unit mm)*
G04 Created by KiCad (PCBNEW 10.0.1) date 2026-06-06 19:27:10*
%MOMM*%
%LPD*%
G01*
G04 APERTURE LIST*
%TA.AperFunction,ComponentPad*%
%ADD10C,2.200000*%
%TD*%
%TA.AperFunction,ComponentPad*%
%ADD11R,1.700000X1.700000*%
%TD*%
%TA.AperFunction,ComponentPad*%
%ADD12C,1.700000*%
%TD*%
%TA.AperFunction,SMDPad,CuDef*%
%ADD13R,1.200000X1.200000*%
%TD*%
%TA.AperFunction,Conductor*%
%ADD14C,0.200000*%
%TD*%
G04 APERTURE END LIST*
D10*
%TO.P,SW4,1,1_1*%
%TO.N,Net-(D4-A)*%
X70150000Y-119040000D03*
%TO.P,SW4,2,2_2*%
%TO.N,/R1*%
X76500000Y-116500000D03*
%TD*%
%TO.P,SW6,1,1_1*%
%TO.N,Net-(D6-A)*%
X70150000Y-82040000D03*
%TO.P,SW6,2,2_2*%
%TO.N,/R3*%
X76500000Y-79500000D03*
%TD*%
%TO.P,SW3,1,1_1*%
%TO.N,Net-(D3-A)*%
X88650000Y-82040000D03*
%TO.P,SW3,2,2_2*%
%TO.N,/R3*%
X95000000Y-79500000D03*
%TD*%
%TO.P,SW1,1,1_1*%
%TO.N,Net-(D1-A)*%
X88605000Y-119035000D03*
%TO.P,SW1,2,2_2*%
%TO.N,/R1*%
X94955000Y-116495000D03*
%TD*%
%TO.P,SW9,1,1_1*%
%TO.N,Net-(D9-A)*%
X51650000Y-82040000D03*
%TO.P,SW9,2,2_2*%
%TO.N,/R3*%
X58000000Y-79500000D03*
%TD*%
D11*
%TO.P,J1,1,Pin_1_1*%
%TO.N,/L3*%
X86795000Y-61705000D03*
D12*
%TO.P,J1,2,Pin_2_2*%
%TO.N,/L2*%
X89335000Y-61705000D03*
%TO.P,J1,3,Pin_3_3*%
%TO.N,/L1*%
X91875000Y-61705000D03*
%TO.P,J1,4,Pin_4_4*%
%TO.N,/R3*%
X94415000Y-61705000D03*
%TO.P,J1,5,Pin_5_5*%
%TO.N,/R2*%
X96955000Y-61705000D03*
%TO.P,J1,6,Pin_6_6*%
%TO.N,/R1*%
X99495000Y-61705000D03*
%TD*%
D10*
%TO.P,SW8,1,1_1*%
%TO.N,Net-(D8-A)*%
X51650000Y-100540000D03*
%TO.P,SW8,2,2_2*%
%TO.N,/R2*%
X58000000Y-98000000D03*
%TD*%
%TO.P,SW5,1,1_1*%
%TO.N,Net-(D5-A)*%
X70150000Y-100540000D03*
%TO.P,SW5,2,2_2*%
%TO.N,/R2*%
X76500000Y-98000000D03*
%TD*%
%TO.P,SW7,1,1_1*%
%TO.N,Net-(D7-A)*%
X51650000Y-119040000D03*
%TO.P,SW7,2,2_2*%
%TO.N,/R1*%
X58000000Y-116500000D03*
%TD*%
%TO.P,SW2,1,1_1*%
%TO.N,Net-(D2-A)*%
X88605000Y-100540000D03*
%TO.P,SW2,2,2_2*%
%TO.N,/R2*%
X94955000Y-98000000D03*
%TD*%
D13*
%TO.P,D6,1,K_1*%
%TO.N,/L2*%
X68000000Y-76200000D03*
%TO.P,D6,2,A_2*%
%TO.N,Net-(D6-A)*%
X68000000Y-79000000D03*
%TD*%
%TO.P,D1,1,K_1*%
%TO.N,/L1*%
X87190000Y-113100000D03*
%TO.P,D1,2,A_2*%
%TO.N,Net-(D1-A)*%
X87190000Y-115900000D03*
%TD*%
%TO.P,D9,1,K_1*%
%TO.N,/L3*%
X49500000Y-75200000D03*
%TO.P,D9,2,A_2*%
%TO.N,Net-(D9-A)*%
X49500000Y-78000000D03*
%TD*%
%TO.P,D4,1,K_1*%
%TO.N,/L2*%
X68500000Y-113100000D03*
%TO.P,D4,2,A_2*%
%TO.N,Net-(D4-A)*%
X68500000Y-115900000D03*
%TD*%
%TO.P,D3,1,K_1*%
%TO.N,/L1*%
X87190000Y-76100000D03*
%TO.P,D3,2,A_2*%
%TO.N,Net-(D3-A)*%
X87190000Y-78900000D03*
%TD*%
%TO.P,D8,1,K_1*%
%TO.N,/L3*%
X49500000Y-94600000D03*
%TO.P,D8,2,A_2*%
%TO.N,Net-(D8-A)*%
X49500000Y-97400000D03*
%TD*%
%TO.P,D5,1,K_1*%
%TO.N,/L2*%
X68000000Y-95100000D03*
%TO.P,D5,2,A_2*%
%TO.N,Net-(D5-A)*%
X68000000Y-97900000D03*
%TD*%
%TO.P,D2,1,K_1*%
%TO.N,/L1*%
X86690000Y-95100000D03*
%TO.P,D2,2,A_2*%
%TO.N,Net-(D2-A)*%
X86690000Y-97900000D03*
%TD*%
%TO.P,D7,1,K_1*%
%TO.N,/L3*%
X50000000Y-113100000D03*
%TO.P,D7,2,A_2*%
%TO.N,Net-(D7-A)*%
X50000000Y-115900000D03*
%TD*%
%TO.N,Net-(D1-A)*%
D14*
X87190000Y-115900000D02*
X87190000Y-117620000D01*
X87190000Y-117620000D02*
X88605000Y-119035000D01*
%TO.N,/L1*%
X87190000Y-66390000D02*
X91875000Y-61705000D01*
X86290000Y-94700000D02*
X86290000Y-77000000D01*
X85790000Y-96000000D02*
X86690000Y-95100000D01*
X87190000Y-76100000D02*
X87190000Y-66390000D01*
X86290000Y-77000000D02*
X87190000Y-76100000D01*
X87190000Y-113100000D02*
X85790000Y-111700000D01*
X85790000Y-111700000D02*
X85790000Y-96000000D01*
X86690000Y-95100000D02*
X86290000Y-94700000D01*
%TO.N,Net-(D2-A)*%
X86690000Y-98625000D02*
X88605000Y-100540000D01*
X86690000Y-97900000D02*
X86690000Y-98625000D01*
%TO.N,Net-(D3-A)*%
X87190000Y-78900000D02*
X87190000Y-80580000D01*
X87190000Y-80580000D02*
X88650000Y-82040000D01*
%TO.N,Net-(D4-A)*%
X68500000Y-117390000D02*
X70150000Y-119040000D01*
X68500000Y-115900000D02*
X68500000Y-117390000D01*
%TO.N,/L2*%
X68000000Y-76200000D02*
X70700000Y-73500000D01*
X70700000Y-73500000D02*
X77540000Y-73500000D01*
X67100000Y-94200000D02*
X68000000Y-95100000D01*
X67100000Y-96000000D02*
X67100000Y-111700000D01*
X68000000Y-95100000D02*
X67100000Y-96000000D01*
X67100000Y-111700000D02*
X68500000Y-113100000D01*
X77540000Y-73500000D02*
X89335000Y-61705000D01*
X67100000Y-77100000D02*
X67100000Y-94200000D01*
X68000000Y-76200000D02*
X67100000Y-77100000D01*
%TO.N,Net-(D5-A)*%
X68000000Y-97900000D02*
X68000000Y-98390000D01*
X68000000Y-98390000D02*
X70150000Y-100540000D01*
%TO.N,Net-(D6-A)*%
X68000000Y-79890000D02*
X70150000Y-82040000D01*
X68000000Y-79000000D02*
X68000000Y-79890000D01*
%TO.N,/L3*%
X49500000Y-94600000D02*
X47500000Y-96600000D01*
X48600000Y-93700000D02*
X49500000Y-94600000D01*
X62995000Y-61705000D02*
X86795000Y-61705000D01*
X49500000Y-75200000D02*
X62995000Y-61705000D01*
X48600000Y-76100000D02*
X48600000Y-93700000D01*
X47500000Y-96600000D02*
X47500000Y-110600000D01*
X49500000Y-75200000D02*
X48600000Y-76100000D01*
X47500000Y-110600000D02*
X50000000Y-113100000D01*
%TO.N,Net-(D7-A)*%
X50000000Y-117390000D02*
X51650000Y-119040000D01*
X50000000Y-115900000D02*
X50000000Y-117390000D01*
%TO.N,Net-(D8-A)*%
X49500000Y-98390000D02*
X51650000Y-100540000D01*
X49500000Y-97400000D02*
X49500000Y-98390000D01*
%TO.N,Net-(D9-A)*%
X49500000Y-79890000D02*
X51650000Y-82040000D01*
X49500000Y-78000000D02*
X49500000Y-79890000D01*
%TD*%
M02*
