%TF.GenerationSoftware,KiCad,Pcbnew,10.0.1*%
%TF.CreationDate,2026-06-06T19:27:10-04:00*%
%TF.ProjectId,Left_Wing,4c656674-5f57-4696-9e67-2e6b69636164,rev?*%
%TF.SameCoordinates,Original*%
%TF.FileFunction,Copper,L1,Top*%
%TF.FilePolarity,Positive*%
%FSLAX46Y46*%
G04 Gerber Fmt 4.6, Leading zero omitted, Abs format (unit mm)*
G04 Created by KiCad (PCBNEW 10.0.1) date 2026-06-06 19:27:10*
%MOMM*%
%LPD*%
G01*
G04 APERTURE LIST*
%TA.AperFunction,ComponentPad*%
%ADD10C,2.200000*%
%TD*%
%TA.AperFunction,ComponentPad*%
%ADD11R,1.700000X1.700000*%
%TD*%
%TA.AperFunction,ComponentPad*%
%ADD12C,1.700000*%
%TD*%
%TA.AperFunction,Conductor*%
%ADD13C,0.200000*%
%TD*%
G04 APERTURE END LIST*
D10*
%TO.P,SW4,1,1_1*%
%TO.N,Net-(D4-A)*%
X70150000Y-119040000D03*
%TO.P,SW4,2,2_2*%
%TO.N,/R1*%
X76500000Y-116500000D03*
%TD*%
%TO.P,SW6,1,1_1*%
%TO.N,Net-(D6-A)*%
X70150000Y-82040000D03*
%TO.P,SW6,2,2_2*%
%TO.N,/R3*%
X76500000Y-79500000D03*
%TD*%
%TO.P,SW3,1,1_1*%
%TO.N,Net-(D3-A)*%
X88650000Y-82040000D03*
%TO.P,SW3,2,2_2*%
%TO.N,/R3*%
X95000000Y-79500000D03*
%TD*%
%TO.P,SW1,1,1_1*%
%TO.N,Net-(D1-A)*%
X88605000Y-119035000D03*
%TO.P,SW1,2,2_2*%
%TO.N,/R1*%
X94955000Y-116495000D03*
%TD*%
%TO.P,SW9,1,1_1*%
%TO.N,Net-(D9-A)*%
X51650000Y-82040000D03*
%TO.P,SW9,2,2_2*%
%TO.N,/R3*%
X58000000Y-79500000D03*
%TD*%
D11*
%TO.P,J1,1,Pin_1_1*%
%TO.N,/L3*%
X86795000Y-61705000D03*
D12*
%TO.P,J1,2,Pin_2_2*%
%TO.N,/L2*%
X89335000Y-61705000D03*
%TO.P,J1,3,Pin_3_3*%
%TO.N,/L1*%
X91875000Y-61705000D03*
%TO.P,J1,4,Pin_4_4*%
%TO.N,/R3*%
X94415000Y-61705000D03*
%TO.P,J1,5,Pin_5_5*%
%TO.N,/R2*%
X96955000Y-61705000D03*
%TO.P,J1,6,Pin_6_6*%
%TO.N,/R1*%
X99495000Y-61705000D03*
%TD*%
D10*
%TO.P,SW8,1,1_1*%
%TO.N,Net-(D8-A)*%
X51650000Y-100540000D03*
%TO.P,SW8,2,2_2*%
%TO.N,/R2*%
X58000000Y-98000000D03*
%TD*%
%TO.P,SW5,1,1_1*%
%TO.N,Net-(D5-A)*%
X70150000Y-100540000D03*
%TO.P,SW5,2,2_2*%
%TO.N,/R2*%
X76500000Y-98000000D03*
%TD*%
%TO.P,SW7,1,1_1*%
%TO.N,Net-(D7-A)*%
X51650000Y-119040000D03*
%TO.P,SW7,2,2_2*%
%TO.N,/R1*%
X58000000Y-116500000D03*
%TD*%
%TO.P,SW2,1,1_1*%
%TO.N,Net-(D2-A)*%
X88605000Y-100540000D03*
%TO.P,SW2,2,2_2*%
%TO.N,/R2*%
X94955000Y-98000000D03*
%TD*%
%TO.N,/R1*%
D13*
X94955000Y-116495000D02*
X99495000Y-111955000D01*
X94950000Y-116500000D02*
X94955000Y-116495000D01*
X76500000Y-116500000D02*
X94950000Y-116500000D01*
X99495000Y-111955000D02*
X99495000Y-61705000D01*
X58000000Y-116500000D02*
X76500000Y-116500000D01*
%TO.N,/R2*%
X96955000Y-96000000D02*
X96955000Y-61705000D01*
X76500000Y-98000000D02*
X94955000Y-98000000D01*
X58000000Y-98000000D02*
X76500000Y-98000000D01*
X94955000Y-98000000D02*
X96955000Y-96000000D01*
%TO.N,/R3*%
X95000000Y-62290000D02*
X94415000Y-61705000D01*
X95000000Y-79500000D02*
X95000000Y-62290000D01*
X58000000Y-79500000D02*
X76500000Y-79500000D01*
X76500000Y-79500000D02*
X95000000Y-79500000D01*
%TD*%
M02*
