%TF.GenerationSoftware,KiCad,Pcbnew,10.0.1*%
%TF.CreationDate,2026-06-06T19:27:10-04:00*%
%TF.ProjectId,Left_Wing,4c656674-5f57-4696-9e67-2e6b69636164,rev?*%
%TF.SameCoordinates,Original*%
%TF.FileFunction,Legend,Bot*%
%TF.FilePolarity,Positive*%
%FSLAX46Y46*%
G04 Gerber Fmt 4.6, Leading zero omitted, Abs format (unit mm)*
G04 Created by KiCad (PCBNEW 10.0.1) date 2026-06-06 19:27:10*
%MOMM*%
%LPD*%
G01*
G04 APERTURE LIST*
%ADD10C,0.150000*%
%ADD11C,0.120000*%
G04 APERTURE END LIST*
D10*
X66454819Y-76861905D02*
X65454819Y-76861905D01*
X65454819Y-76861905D02*
X65454819Y-77100000D01*
X65454819Y-77100000D02*
X65502438Y-77242857D01*
X65502438Y-77242857D02*
X65597676Y-77338095D01*
X65597676Y-77338095D02*
X65692914Y-77385714D01*
X65692914Y-77385714D02*
X65883390Y-77433333D01*
X65883390Y-77433333D02*
X66026247Y-77433333D01*
X66026247Y-77433333D02*
X66216723Y-77385714D01*
X66216723Y-77385714D02*
X66311961Y-77338095D01*
X66311961Y-77338095D02*
X66407200Y-77242857D01*
X66407200Y-77242857D02*
X66454819Y-77100000D01*
X66454819Y-77100000D02*
X66454819Y-76861905D01*
X65454819Y-78290476D02*
X65454819Y-78100000D01*
X65454819Y-78100000D02*
X65502438Y-78004762D01*
X65502438Y-78004762D02*
X65550057Y-77957143D01*
X65550057Y-77957143D02*
X65692914Y-77861905D01*
X65692914Y-77861905D02*
X65883390Y-77814286D01*
X65883390Y-77814286D02*
X66264342Y-77814286D01*
X66264342Y-77814286D02*
X66359580Y-77861905D01*
X66359580Y-77861905D02*
X66407200Y-77909524D01*
X66407200Y-77909524D02*
X66454819Y-78004762D01*
X66454819Y-78004762D02*
X66454819Y-78195238D01*
X66454819Y-78195238D02*
X66407200Y-78290476D01*
X66407200Y-78290476D02*
X66359580Y-78338095D01*
X66359580Y-78338095D02*
X66264342Y-78385714D01*
X66264342Y-78385714D02*
X66026247Y-78385714D01*
X66026247Y-78385714D02*
X65931009Y-78338095D01*
X65931009Y-78338095D02*
X65883390Y-78290476D01*
X65883390Y-78290476D02*
X65835771Y-78195238D01*
X65835771Y-78195238D02*
X65835771Y-78004762D01*
X65835771Y-78004762D02*
X65883390Y-77909524D01*
X65883390Y-77909524D02*
X65931009Y-77861905D01*
X65931009Y-77861905D02*
X66026247Y-77814286D01*
X85644819Y-113761905D02*
X84644819Y-113761905D01*
X84644819Y-113761905D02*
X84644819Y-114000000D01*
X84644819Y-114000000D02*
X84692438Y-114142857D01*
X84692438Y-114142857D02*
X84787676Y-114238095D01*
X84787676Y-114238095D02*
X84882914Y-114285714D01*
X84882914Y-114285714D02*
X85073390Y-114333333D01*
X85073390Y-114333333D02*
X85216247Y-114333333D01*
X85216247Y-114333333D02*
X85406723Y-114285714D01*
X85406723Y-114285714D02*
X85501961Y-114238095D01*
X85501961Y-114238095D02*
X85597200Y-114142857D01*
X85597200Y-114142857D02*
X85644819Y-114000000D01*
X85644819Y-114000000D02*
X85644819Y-113761905D01*
X85644819Y-115285714D02*
X85644819Y-114714286D01*
X85644819Y-115000000D02*
X84644819Y-115000000D01*
X84644819Y-115000000D02*
X84787676Y-114904762D01*
X84787676Y-114904762D02*
X84882914Y-114809524D01*
X84882914Y-114809524D02*
X84930533Y-114714286D01*
X47954819Y-75861905D02*
X46954819Y-75861905D01*
X46954819Y-75861905D02*
X46954819Y-76100000D01*
X46954819Y-76100000D02*
X47002438Y-76242857D01*
X47002438Y-76242857D02*
X47097676Y-76338095D01*
X47097676Y-76338095D02*
X47192914Y-76385714D01*
X47192914Y-76385714D02*
X47383390Y-76433333D01*
X47383390Y-76433333D02*
X47526247Y-76433333D01*
X47526247Y-76433333D02*
X47716723Y-76385714D01*
X47716723Y-76385714D02*
X47811961Y-76338095D01*
X47811961Y-76338095D02*
X47907200Y-76242857D01*
X47907200Y-76242857D02*
X47954819Y-76100000D01*
X47954819Y-76100000D02*
X47954819Y-75861905D01*
X47954819Y-76909524D02*
X47954819Y-77100000D01*
X47954819Y-77100000D02*
X47907200Y-77195238D01*
X47907200Y-77195238D02*
X47859580Y-77242857D01*
X47859580Y-77242857D02*
X47716723Y-77338095D01*
X47716723Y-77338095D02*
X47526247Y-77385714D01*
X47526247Y-77385714D02*
X47145295Y-77385714D01*
X47145295Y-77385714D02*
X47050057Y-77338095D01*
X47050057Y-77338095D02*
X47002438Y-77290476D01*
X47002438Y-77290476D02*
X46954819Y-77195238D01*
X46954819Y-77195238D02*
X46954819Y-77004762D01*
X46954819Y-77004762D02*
X47002438Y-76909524D01*
X47002438Y-76909524D02*
X47050057Y-76861905D01*
X47050057Y-76861905D02*
X47145295Y-76814286D01*
X47145295Y-76814286D02*
X47383390Y-76814286D01*
X47383390Y-76814286D02*
X47478628Y-76861905D01*
X47478628Y-76861905D02*
X47526247Y-76909524D01*
X47526247Y-76909524D02*
X47573866Y-77004762D01*
X47573866Y-77004762D02*
X47573866Y-77195238D01*
X47573866Y-77195238D02*
X47526247Y-77290476D01*
X47526247Y-77290476D02*
X47478628Y-77338095D01*
X47478628Y-77338095D02*
X47383390Y-77385714D01*
X66954819Y-113761905D02*
X65954819Y-113761905D01*
X65954819Y-113761905D02*
X65954819Y-114000000D01*
X65954819Y-114000000D02*
X66002438Y-114142857D01*
X66002438Y-114142857D02*
X66097676Y-114238095D01*
X66097676Y-114238095D02*
X66192914Y-114285714D01*
X66192914Y-114285714D02*
X66383390Y-114333333D01*
X66383390Y-114333333D02*
X66526247Y-114333333D01*
X66526247Y-114333333D02*
X66716723Y-114285714D01*
X66716723Y-114285714D02*
X66811961Y-114238095D01*
X66811961Y-114238095D02*
X66907200Y-114142857D01*
X66907200Y-114142857D02*
X66954819Y-114000000D01*
X66954819Y-114000000D02*
X66954819Y-113761905D01*
X66288152Y-115190476D02*
X66954819Y-115190476D01*
X65907200Y-114952381D02*
X66621485Y-114714286D01*
X66621485Y-114714286D02*
X66621485Y-115333333D01*
X85644819Y-76761905D02*
X84644819Y-76761905D01*
X84644819Y-76761905D02*
X84644819Y-77000000D01*
X84644819Y-77000000D02*
X84692438Y-77142857D01*
X84692438Y-77142857D02*
X84787676Y-77238095D01*
X84787676Y-77238095D02*
X84882914Y-77285714D01*
X84882914Y-77285714D02*
X85073390Y-77333333D01*
X85073390Y-77333333D02*
X85216247Y-77333333D01*
X85216247Y-77333333D02*
X85406723Y-77285714D01*
X85406723Y-77285714D02*
X85501961Y-77238095D01*
X85501961Y-77238095D02*
X85597200Y-77142857D01*
X85597200Y-77142857D02*
X85644819Y-77000000D01*
X85644819Y-77000000D02*
X85644819Y-76761905D01*
X84644819Y-77666667D02*
X84644819Y-78285714D01*
X84644819Y-78285714D02*
X85025771Y-77952381D01*
X85025771Y-77952381D02*
X85025771Y-78095238D01*
X85025771Y-78095238D02*
X85073390Y-78190476D01*
X85073390Y-78190476D02*
X85121009Y-78238095D01*
X85121009Y-78238095D02*
X85216247Y-78285714D01*
X85216247Y-78285714D02*
X85454342Y-78285714D01*
X85454342Y-78285714D02*
X85549580Y-78238095D01*
X85549580Y-78238095D02*
X85597200Y-78190476D01*
X85597200Y-78190476D02*
X85644819Y-78095238D01*
X85644819Y-78095238D02*
X85644819Y-77809524D01*
X85644819Y-77809524D02*
X85597200Y-77714286D01*
X85597200Y-77714286D02*
X85549580Y-77666667D01*
X47954819Y-95261905D02*
X46954819Y-95261905D01*
X46954819Y-95261905D02*
X46954819Y-95500000D01*
X46954819Y-95500000D02*
X47002438Y-95642857D01*
X47002438Y-95642857D02*
X47097676Y-95738095D01*
X47097676Y-95738095D02*
X47192914Y-95785714D01*
X47192914Y-95785714D02*
X47383390Y-95833333D01*
X47383390Y-95833333D02*
X47526247Y-95833333D01*
X47526247Y-95833333D02*
X47716723Y-95785714D01*
X47716723Y-95785714D02*
X47811961Y-95738095D01*
X47811961Y-95738095D02*
X47907200Y-95642857D01*
X47907200Y-95642857D02*
X47954819Y-95500000D01*
X47954819Y-95500000D02*
X47954819Y-95261905D01*
X47383390Y-96404762D02*
X47335771Y-96309524D01*
X47335771Y-96309524D02*
X47288152Y-96261905D01*
X47288152Y-96261905D02*
X47192914Y-96214286D01*
X47192914Y-96214286D02*
X47145295Y-96214286D01*
X47145295Y-96214286D02*
X47050057Y-96261905D01*
X47050057Y-96261905D02*
X47002438Y-96309524D01*
X47002438Y-96309524D02*
X46954819Y-96404762D01*
X46954819Y-96404762D02*
X46954819Y-96595238D01*
X46954819Y-96595238D02*
X47002438Y-96690476D01*
X47002438Y-96690476D02*
X47050057Y-96738095D01*
X47050057Y-96738095D02*
X47145295Y-96785714D01*
X47145295Y-96785714D02*
X47192914Y-96785714D01*
X47192914Y-96785714D02*
X47288152Y-96738095D01*
X47288152Y-96738095D02*
X47335771Y-96690476D01*
X47335771Y-96690476D02*
X47383390Y-96595238D01*
X47383390Y-96595238D02*
X47383390Y-96404762D01*
X47383390Y-96404762D02*
X47431009Y-96309524D01*
X47431009Y-96309524D02*
X47478628Y-96261905D01*
X47478628Y-96261905D02*
X47573866Y-96214286D01*
X47573866Y-96214286D02*
X47764342Y-96214286D01*
X47764342Y-96214286D02*
X47859580Y-96261905D01*
X47859580Y-96261905D02*
X47907200Y-96309524D01*
X47907200Y-96309524D02*
X47954819Y-96404762D01*
X47954819Y-96404762D02*
X47954819Y-96595238D01*
X47954819Y-96595238D02*
X47907200Y-96690476D01*
X47907200Y-96690476D02*
X47859580Y-96738095D01*
X47859580Y-96738095D02*
X47764342Y-96785714D01*
X47764342Y-96785714D02*
X47573866Y-96785714D01*
X47573866Y-96785714D02*
X47478628Y-96738095D01*
X47478628Y-96738095D02*
X47431009Y-96690476D01*
X47431009Y-96690476D02*
X47383390Y-96595238D01*
X66454819Y-95761905D02*
X65454819Y-95761905D01*
X65454819Y-95761905D02*
X65454819Y-96000000D01*
X65454819Y-96000000D02*
X65502438Y-96142857D01*
X65502438Y-96142857D02*
X65597676Y-96238095D01*
X65597676Y-96238095D02*
X65692914Y-96285714D01*
X65692914Y-96285714D02*
X65883390Y-96333333D01*
X65883390Y-96333333D02*
X66026247Y-96333333D01*
X66026247Y-96333333D02*
X66216723Y-96285714D01*
X66216723Y-96285714D02*
X66311961Y-96238095D01*
X66311961Y-96238095D02*
X66407200Y-96142857D01*
X66407200Y-96142857D02*
X66454819Y-96000000D01*
X66454819Y-96000000D02*
X66454819Y-95761905D01*
X65454819Y-97238095D02*
X65454819Y-96761905D01*
X65454819Y-96761905D02*
X65931009Y-96714286D01*
X65931009Y-96714286D02*
X65883390Y-96761905D01*
X65883390Y-96761905D02*
X65835771Y-96857143D01*
X65835771Y-96857143D02*
X65835771Y-97095238D01*
X65835771Y-97095238D02*
X65883390Y-97190476D01*
X65883390Y-97190476D02*
X65931009Y-97238095D01*
X65931009Y-97238095D02*
X66026247Y-97285714D01*
X66026247Y-97285714D02*
X66264342Y-97285714D01*
X66264342Y-97285714D02*
X66359580Y-97238095D01*
X66359580Y-97238095D02*
X66407200Y-97190476D01*
X66407200Y-97190476D02*
X66454819Y-97095238D01*
X66454819Y-97095238D02*
X66454819Y-96857143D01*
X66454819Y-96857143D02*
X66407200Y-96761905D01*
X66407200Y-96761905D02*
X66359580Y-96714286D01*
X85144819Y-95761905D02*
X84144819Y-95761905D01*
X84144819Y-95761905D02*
X84144819Y-96000000D01*
X84144819Y-96000000D02*
X84192438Y-96142857D01*
X84192438Y-96142857D02*
X84287676Y-96238095D01*
X84287676Y-96238095D02*
X84382914Y-96285714D01*
X84382914Y-96285714D02*
X84573390Y-96333333D01*
X84573390Y-96333333D02*
X84716247Y-96333333D01*
X84716247Y-96333333D02*
X84906723Y-96285714D01*
X84906723Y-96285714D02*
X85001961Y-96238095D01*
X85001961Y-96238095D02*
X85097200Y-96142857D01*
X85097200Y-96142857D02*
X85144819Y-96000000D01*
X85144819Y-96000000D02*
X85144819Y-95761905D01*
X84240057Y-96714286D02*
X84192438Y-96761905D01*
X84192438Y-96761905D02*
X84144819Y-96857143D01*
X84144819Y-96857143D02*
X84144819Y-97095238D01*
X84144819Y-97095238D02*
X84192438Y-97190476D01*
X84192438Y-97190476D02*
X84240057Y-97238095D01*
X84240057Y-97238095D02*
X84335295Y-97285714D01*
X84335295Y-97285714D02*
X84430533Y-97285714D01*
X84430533Y-97285714D02*
X84573390Y-97238095D01*
X84573390Y-97238095D02*
X85144819Y-96666667D01*
X85144819Y-96666667D02*
X85144819Y-97285714D01*
X48454819Y-113761905D02*
X47454819Y-113761905D01*
X47454819Y-113761905D02*
X47454819Y-114000000D01*
X47454819Y-114000000D02*
X47502438Y-114142857D01*
X47502438Y-114142857D02*
X47597676Y-114238095D01*
X47597676Y-114238095D02*
X47692914Y-114285714D01*
X47692914Y-114285714D02*
X47883390Y-114333333D01*
X47883390Y-114333333D02*
X48026247Y-114333333D01*
X48026247Y-114333333D02*
X48216723Y-114285714D01*
X48216723Y-114285714D02*
X48311961Y-114238095D01*
X48311961Y-114238095D02*
X48407200Y-114142857D01*
X48407200Y-114142857D02*
X48454819Y-114000000D01*
X48454819Y-114000000D02*
X48454819Y-113761905D01*
X47454819Y-114666667D02*
X47454819Y-115333333D01*
X47454819Y-115333333D02*
X48454819Y-114904762D01*
%TO.C,D6*%
D11*
X67050000Y-75340000D02*
X67050000Y-79000000D01*
X67050000Y-75340000D02*
X68950000Y-75340000D01*
X68950000Y-75340000D02*
X68950000Y-79000000D01*
%TO.C,D1*%
X86240000Y-112240000D02*
X86240000Y-115900000D01*
X86240000Y-112240000D02*
X88140000Y-112240000D01*
X88140000Y-112240000D02*
X88140000Y-115900000D01*
%TO.C,D9*%
X48550000Y-74340000D02*
X48550000Y-78000000D01*
X48550000Y-74340000D02*
X50450000Y-74340000D01*
X50450000Y-74340000D02*
X50450000Y-78000000D01*
%TO.C,D4*%
X67550000Y-112240000D02*
X67550000Y-115900000D01*
X67550000Y-112240000D02*
X69450000Y-112240000D01*
X69450000Y-112240000D02*
X69450000Y-115900000D01*
%TO.C,D3*%
X86240000Y-75240000D02*
X86240000Y-78900000D01*
X86240000Y-75240000D02*
X88140000Y-75240000D01*
X88140000Y-75240000D02*
X88140000Y-78900000D01*
%TO.C,D8*%
X48550000Y-93740000D02*
X48550000Y-97400000D01*
X48550000Y-93740000D02*
X50450000Y-93740000D01*
X50450000Y-93740000D02*
X50450000Y-97400000D01*
%TO.C,D5*%
X67050000Y-94240000D02*
X67050000Y-97900000D01*
X67050000Y-94240000D02*
X68950000Y-94240000D01*
X68950000Y-94240000D02*
X68950000Y-97900000D01*
%TO.C,D2*%
X85740000Y-94240000D02*
X85740000Y-97900000D01*
X85740000Y-94240000D02*
X87640000Y-94240000D01*
X87640000Y-94240000D02*
X87640000Y-97900000D01*
%TO.C,D7*%
X49050000Y-112240000D02*
X49050000Y-115900000D01*
X49050000Y-112240000D02*
X50950000Y-112240000D01*
X50950000Y-112240000D02*
X50950000Y-115900000D01*
%TD*%
M02*
